<svg
      width="276"
      height="51"
      viewBox="0 0 276 51"
      fill="none"
      xmlns="http://www.w3.org/2000/svg"
    >
      <path
        d="M42.5834 38.4422V50.1431H45.8904V38.4422C45.3488 38.5099 44.7969 38.5448 44.2369 38.5448C43.6769 38.5448 43.125 38.5099 42.5834 38.4422ZM47.7263 38.0787L52.4348 49.4907L55.4909 48.2244L50.782 36.8112C49.8309 37.3548 48.8062 37.7835 47.7263 38.0787ZM52.3483 35.7609L63.2519 46.6872L65.5903 44.3439L54.6867 33.4177C54.0079 34.2929 53.2215 35.0806 52.3483 35.7609ZM55.7315 31.8539L75.9895 40.2625L77.2551 37.2011L56.9977 28.7929C56.7026 29.8747 56.2743 30.9013 55.7315 31.8539ZM57.3623 26.9465H88.1431V23.6327H57.3623C57.4298 24.1754 57.4647 24.7284 57.4647 25.2896C57.4647 25.8507 57.4298 26.4037 57.3623 26.9465ZM56.9977 21.7864L77.2551 13.378L75.9895 10.3166L55.7311 18.725C56.274 19.6777 56.7026 20.7044 56.9977 21.7864ZM54.6864 17.1613L65.5903 6.23519L63.2519 3.8919L52.3483 14.8181C53.2215 15.4985 54.0076 16.2861 54.6864 17.1613ZM50.7817 13.7679L55.4909 2.35474L52.4348 1.08844L47.7263 12.5004C48.8062 12.7956 49.8306 13.2244 50.7817 13.7679ZM45.8904 12.1369V0.436035H42.5834V12.1369C43.125 12.0692 43.6769 12.0343 44.2369 12.0343C44.7969 12.0343 45.3488 12.0692 45.8904 12.1369ZM40.7475 12.5004L36.0389 1.08844L32.9829 2.35474L37.6918 13.768C38.6428 13.2244 39.6675 12.7956 40.7475 12.5004ZM36.1255 14.8182L25.0565 3.72621L22.7181 6.0695L33.787 17.1614C34.4659 16.2862 35.2522 15.4985 36.1255 14.8182ZM32.7423 18.7251L12.4843 10.3166L11.2187 13.378L31.476 21.7864C31.7712 20.7044 32.1994 19.6779 32.7423 18.7251ZM31.1114 23.6327H0V26.9465H31.1114C31.0439 26.4037 31.0091 25.8507 31.0091 25.2896C31.0091 24.7284 31.0439 24.1754 31.1114 23.6327ZM31.476 28.7929L11.2187 37.2011L12.4843 40.2625L32.7423 31.8538C32.1994 30.9013 31.7712 29.8747 31.476 28.7929ZM33.787 33.4176L22.7181 44.5096L25.0565 46.8529L36.1252 35.7608C35.2519 35.0805 34.4659 34.2928 33.787 33.4176ZM36.0389 49.4907L40.7475 38.0787C39.6675 37.7835 38.6428 37.3547 37.6918 36.811L32.9829 48.2244L36.0389 49.4907Z"
        fill="#059669"
      />
      <path
        d="M54.1578 25.2896C54.1578 19.7991 49.716 15.3481 44.2369 15.3481C38.7577 15.3481 34.316 19.7991 34.316 25.2896C34.316 30.78 38.7577 35.231 44.2369 35.231V38.5448C36.9314 38.5448 31.0091 32.6102 31.0091 25.2896C31.0091 17.9689 36.9314 12.0343 44.2369 12.0343C51.5424 12.0343 57.4647 17.9689 57.4647 25.2896C57.4647 32.6102 51.5424 38.5448 44.2369 38.5448V35.231C49.716 35.231 54.1578 30.78 54.1578 25.2896Z"
        fill="#059669"
      />
      <path
        d="M37.2923 25.2896C37.2923 21.4462 40.4015 18.3306 44.2369 18.3306V21.6444C42.2279 21.6444 40.5992 23.2764 40.5992 25.2896C40.5992 27.3027 42.2279 28.9347 44.2369 28.9347V32.2485C40.4015 32.2485 37.2923 29.1329 37.2923 25.2896Z"
        fill="#059669"
      />
      <path
        d="M270.135 36.506V15.5826H275.535V36.506H270.135Z"
        fill="#059669"
      />
      <path
        d="M252.639 36.5061V20.9028H247.239V16.4561H252.639V10.858L258.038 9.50806V16.4164H268.758V20.9822H258.038V36.5061H252.639Z"
        fill="#059669"
      />
      <path
        d="M240.313 36.506V15.5826H245.712V36.506H240.313Z"
        fill="#059669"
      />
      <path
        d="M226.418 37.1809C221.773 37.1809 217.088 36.109 214.071 34.6003V29.955H214.666C217.485 31.5828 222.011 32.8136 226.657 32.8136C230.905 32.8136 232.731 32.099 232.731 30.7491C232.731 29.7168 231.778 29.2403 227.848 28.6051L222.408 27.7316C216.413 26.7788 213.872 24.8333 213.872 21.4983C213.872 17.4486 218.279 14.9473 225.188 14.9473C229.198 14.9473 233.485 15.781 236.781 17.2897V21.7762H236.185C232.969 20.1484 228.761 19.2749 224.91 19.2749C221.257 19.2749 219.272 19.9101 219.272 21.2203C219.272 22.2526 220.304 22.7291 223.719 23.2849L229.356 24.1981C235.55 25.2303 238.17 27.0567 238.17 30.4314C238.17 34.5605 233.922 37.1809 226.418 37.1809Z"
        fill="#059669"
      />
      <path
        d="M198.382 37.1809C189.925 37.1809 183.93 32.3769 183.93 26.0244C183.93 19.7116 189.925 14.9473 198.382 14.9473C206.879 14.9473 212.874 19.7116 212.874 26.0244C212.874 32.3769 206.879 37.1809 198.382 37.1809ZM198.382 32.5754C203.98 32.5754 207.236 29.8359 207.236 26.0244C207.236 22.2923 203.98 19.5528 198.382 19.5528C192.863 19.5528 189.568 22.2923 189.568 26.0244C189.568 29.8359 192.863 32.5754 198.382 32.5754Z"
        fill="#059669"
      />
      <path
        d="M176.329 36.506V15.5826H181.729V36.506H176.329Z"
        fill="#059669"
      />
      <path
        d="M176.329 15.5826V36.506H181.729V15.5826H176.329Z"
        fill="#059669"
      />
      <path
        d="M176.363 7.5061V12.5061H181.763V7.5061H176.363Z"
        fill="#059669"
      />
      <path
        d="M240.313 7.5061V12.5061H245.713V7.5061H240.313Z"
        fill="#059669"
      />
      <path
        d="M270.155 7.5061V12.5061H275.555V7.5061H270.155Z"
        fill="#059669"
      />
      <path
        d="M155.931 36.506V15.5825H161.211V20.069H161.529C163.395 17.0515 166.968 14.9473 171.971 14.9473C173.043 14.9473 174.273 15.1061 175.028 15.3046V20.3469H174.432C173.678 20.1484 172.606 20.0292 171.693 20.0292C165.38 20.0292 161.37 23.5628 161.37 30.3123V36.506H155.931Z"
        fill="#059669"
      />
      <path
        d="M136.779 37.1809C130.109 37.1809 126.376 33.965 126.376 27.1361V15.5825H131.776V26.6597C131.776 30.7491 133.88 32.4563 137.89 32.4563C142.814 32.4563 146.426 29.4786 146.426 23.9996V15.5825H151.866V36.506H146.625V32.7739H146.347C144.6 35.434 141.305 37.1809 136.779 37.1809Z"
        fill="#059669"
      />
      <path
        d="M113.997 37.1412C105.382 37.1412 99.7041 32.496 99.7041 26.0641C99.7041 19.6322 105.382 14.9473 113.957 14.9473C117.69 14.9473 121.7 15.9398 124.161 17.4883V22.3717H123.566C121.144 20.6645 117.69 19.6322 114.394 19.6322C108.756 19.6322 105.302 22.0541 105.302 26.0244C105.302 29.9947 108.756 32.4166 114.434 32.4166C117.809 32.4166 121.223 31.424 123.645 29.6771H124.241V34.5605C121.7 36.2281 117.729 37.1412 113.997 37.1412Z"
        fill="#059669"
      />
    </svg>