<svg width="512" height="512" viewBox="0 0 512 512" fill="none" xmlns="http://www.w3.org/2000/svg">
<rect width="512" height="512" fill="black"/>
<path d="M423.945 342.437C427.612 342.363 431.398 342.4 435.076 342.389C449.551 354.462 458.061 369.987 463.277 387.882C463.332 387.039 463.332 383.797 463.539 383.368L463.909 384.518C464.4 383.768 464.171 384.041 464.589 383.627C465.306 386.27 467.742 392.665 464.537 394.022C466.814 408.653 466.167 423.72 460.914 437.708C455.976 450.867 446.121 466.692 434.983 475.342C430.972 475.567 427.398 475.464 423.395 475.379C424.74 474.255 425.997 473.028 427.224 471.775C444.45 454.205 454.527 433.493 454.427 408.527C454.32 381.857 442.465 360.72 423.945 342.437Z" fill="white"/>
<path d="M463.276 387.883C463.332 387.04 463.332 383.798 463.539 383.369L463.908 384.519C464.4 383.768 464.171 384.042 464.589 383.628C465.306 386.271 467.742 392.666 464.537 394.023C464.175 391.716 463.849 390.149 463.276 387.883Z" fill="black"/>
<path d="M164.327 342.418C168.14 342.34 172.1 342.41 175.926 342.425C183.063 348.853 189.187 356.324 194.092 364.586C210.648 392.79 210.589 427.397 192.777 455.181C189.521 460.256 180.454 472.244 175.605 475.083C172.677 475.744 166.817 475.482 163.616 475.419C165.17 474.029 166.705 472.617 168.224 471.187C184.811 455.181 194.371 433.249 194.808 410.205C195.214 381.856 183.48 362.061 164.327 342.418Z" fill="white"/>
<path d="M341.946 342.336C341.898 342.55 333.023 352.531 332.195 353.496C306.459 383.482 305.114 430.033 329.873 461.043C333.936 466.133 337.932 471.304 342.985 475.389C339.022 475.452 335.44 475.526 331.474 475.311C328.631 474.21 325.563 470.262 323.56 468.074C294.671 436.487 292.812 388.158 319.564 354.586C323.253 349.958 326.339 346.269 330.853 342.447C334.549 342.377 338.246 342.34 341.946 342.336Z" fill="white"/>
<path d="M431.248 188.046C434.719 187.934 437.643 187.958 441.118 188.067C452.585 196.593 463.963 215.835 468.121 229.281C474.901 251.28 472.734 275.064 462.092 295.476C458.932 301.453 446.541 319.758 440.046 321.74C436.534 321.828 432.878 321.725 429.355 321.677C432.346 319.599 439.096 312.162 441.532 309.038C466.373 277.171 467.515 237.142 443.835 204.254C441.303 200.799 438.538 197.516 435.68 194.332C434.557 193.079 430.427 189.424 430.305 188.267L431.248 188.046Z" fill="white"/>
<path d="M72.1379 188.008C75.8629 187.876 79.5923 187.985 83.3033 188.334C69.9876 199.127 56.5921 221.726 53.8622 238.636C49.6703 264.6 54.6621 286.778 70.5964 307.671C73.2598 311.164 75.7749 313.992 78.7325 317.227C79.8001 318.391 81.8635 320.284 82.6457 321.415L82.1637 321.666C78.5551 321.762 74.9443 321.773 71.3354 321.692C66.6016 317.474 59.0706 308.68 55.6354 303.527C42.8938 284.298 38.2716 260.81 42.7773 238.185C45.9674 222.479 52.931 208.52 63.5083 196.609C66.1916 193.588 68.7378 190.276 72.1379 188.008Z" fill="white"/>
<path d="M71.3079 342.373L83.009 342.395C45.4069 376.588 41.931 429.338 74.8821 466.906C77.3684 469.741 80.2406 472.177 82.6193 474.868L83.0189 475.326C79.1021 475.482 75.3981 475.452 71.4838 475.422C69.2803 473.626 67.4321 471.619 65.4685 469.589C35.1575 438.239 32.8475 388.487 60.1037 354.45C63.6043 350.08 67.1567 346.258 71.3079 342.373Z" fill="white"/>
<path d="M78.9343 34.9822C82.4696 34.9493 86.1277 35.0321 89.6731 35.0646C86.5214 48.7562 79.9663 66.5502 75.8624 80.1964C70.267 98.8757 64.5052 117.504 58.5774 136.081C56.0101 144.201 53.6055 153.055 50.7618 160.951C47.1743 160.995 43.5864 160.977 40 160.896C40.8857 158.791 41.6298 156.596 42.2723 154.405C45.8047 142.365 49.6066 130.388 53.2333 118.381L66.6577 75.3132C70.7113 62.0874 74.7302 48.0775 78.9343 34.9822Z" fill="white"/>
<path d="M369.591 35.0117L379.461 35.0154C378.503 40.1292 375.598 48.8815 373.957 54.196L364.024 85.8916C360.239 97.5918 356.72 109.875 353.115 121.663L343.571 152.138C342.939 154.215 341.479 160.132 339.871 160.988C336.47 160.986 333.069 160.926 329.672 160.809C331.487 158.082 334.115 147.883 335.246 144.212L347.19 104.94C354.213 81.9773 362.142 58.382 368.84 35.374L369.591 35.0117Z" fill="white"/>
<path d="M113.482 35.0135C116.78 34.9522 120.079 34.991 123.375 35.1303C123.933 38.8908 125.62 43.5189 126.652 47.2139C129.066 55.8513 132.085 64.3167 134.759 72.8246L157.833 147.566C158.272 149.014 161.809 159.957 161.737 160.622L160.977 160.883L151.413 161.007C140.961 128.352 130.813 95.6005 120.971 62.756C120.124 59.9422 112.315 36.1328 112.506 35.2727L113.482 35.0135Z" fill="white"/>
<path d="M403.12 35.0063L413.101 34.9619C413.851 40.8328 419.633 56.4029 421.607 62.8948L446.873 144.987C447.612 147.444 451.63 159.067 451.541 160.624L450.787 160.905L441.283 160.978C439.162 153.055 435.424 142.774 432.959 134.634L406.617 48.8764C405.985 46.7886 402.093 36.1274 402.281 35.2051L403.12 35.0063Z" fill="white"/>
<path d="M128.198 190.827C132.277 190.79 136.355 190.806 140.433 190.876C147.567 203.316 156.164 216.743 163.7 229.13C160.196 229.302 157.539 229.265 154.02 229.148C148.369 221.153 142.778 213.116 137.249 205.037C136.301 203.838 135.394 202.36 134.551 201.065C128.083 210.399 121.758 220.082 115.048 229.23C111.462 229.324 108.31 229.261 104.74 229.156C107.015 226.622 127.406 193.788 128.198 190.827Z" fill="white"/>
<path d="M372.364 190.8C386.866 190.566 383.28 189.635 390.832 201.49C396.174 209.871 401.733 220.902 407.681 228.719L407.943 229.055C404.824 229.323 401.423 229.276 398.27 229.298C393.375 223.461 386.197 212.153 381.328 205.435C380.4 204.148 379.221 202.752 378.216 201.5C371.555 210.844 365.659 219.736 358.724 229.257C355.486 229.346 352.144 229.277 348.898 229.252C351.445 225.906 371.614 193.356 372.364 190.8Z" fill="white"/>
<path d="M226.187 466.37C229.14 466.263 232.2 466.281 235.161 466.311C253.975 466.518 272.934 465.975 291.735 466.433C291.284 468.784 291.521 474.14 291.565 476.757C286.852 477.264 275.271 476.931 269.822 476.931L226.12 476.898L226.187 466.37Z" fill="white"/>
<path d="M175.019 158.469C196.634 158.215 218.694 158.446 240.327 158.462C240.542 161.702 240.539 165.399 240.611 168.677C233.137 168.999 224.052 168.777 216.418 168.777L174.962 168.709L175.019 158.469Z" fill="white"/>
<path d="M251.479 158.458L317.13 158.469C317.341 161.86 317.27 165.327 317.252 168.73C296.159 169.208 272.609 168.826 251.438 168.725C251.42 165.302 251.435 161.88 251.479 158.458Z" fill="white"/>
<path d="M110.128 342.469C124.142 342.144 119.847 355.255 118.134 364.641C117.665 367.213 115.796 380.599 114.88 381.53L109.249 381.574C107.685 370.4 104.167 357.979 104.893 346.857C106.726 344.428 107.368 343.707 110.128 342.469Z" fill="white"/>
<path d="M133.42 342.463C146.595 342.134 142.962 352.787 141.949 362.239C141.706 364.505 138.753 380.785 138.231 381.542L132.581 381.583C131.147 373.798 126.973 354.953 128.384 346.972C128.68 345.298 131.65 343.228 133.42 342.463Z" fill="white"/>
<path d="M369.695 342.459C374.26 342.381 375.01 342.829 378.319 345.823C380.108 353.072 377.306 363.485 376.23 370.819C375.89 373.118 375.033 379.295 374.356 381.295L373.528 381.587L368.519 381.524C367.713 370.475 362.712 357.796 363.932 347.346C365.459 344.877 366.978 343.383 369.695 342.459Z" fill="white"/>
<path d="M392.947 342.469C402.011 342.141 402.765 347.475 401.955 355.149C401.042 363.784 399.357 372.748 397.556 381.261L396.776 381.634L391.742 381.457C390.552 371.413 386.145 355.197 387.801 346.624C389.601 344.358 390.197 343.412 392.947 342.469Z" fill="white"/>
<path d="M248.634 288.85C252.76 288.784 260.515 288.555 264.419 289.002C264.533 294.133 264.474 299.496 264.493 304.649C259.299 304.786 253.806 304.697 248.586 304.697C248.531 299.415 248.549 294.129 248.634 288.85Z" fill="white"/>
</svg>
