<svg width="512" height="512" viewBox="0 0 512 512" fill="none" xmlns="http://www.w3.org/2000/svg">
<rect width="512" height="512" fill="black"/>
<path d="M384.201 321.981C387 321.925 389.889 321.953 392.697 321.944C403.747 331.16 410.243 343.011 414.224 356.671C414.266 356.028 414.266 353.553 414.424 353.226L414.707 354.104C415.082 353.531 414.907 353.74 415.226 353.424C415.773 355.441 417.633 360.323 415.186 361.358C416.925 372.527 416.431 384.028 412.421 394.706C408.651 404.751 401.128 416.831 392.626 423.434C389.565 423.606 386.836 423.527 383.78 423.462C384.807 422.604 385.767 421.667 386.704 420.711C399.853 407.299 407.545 391.489 407.469 372.431C407.387 352.072 398.338 335.937 384.201 321.981Z" fill="white"/>
<path d="M414.224 356.672C414.266 356.029 414.266 353.554 414.424 353.227L414.706 354.104C415.081 353.531 414.906 353.74 415.225 353.424C415.773 355.442 417.632 360.323 415.186 361.359C414.909 359.598 414.661 358.402 414.224 356.672Z" fill="black"/>
<path d="M186.022 321.967C188.933 321.908 191.956 321.961 194.876 321.973C200.324 326.88 204.999 332.582 208.743 338.889C221.381 360.419 221.336 386.836 207.739 408.044C205.254 411.918 198.333 421.069 194.631 423.236C192.396 423.741 187.923 423.541 185.479 423.493C186.665 422.432 187.838 421.354 188.997 420.262C201.658 408.044 208.956 391.303 209.289 373.712C209.6 352.072 200.643 336.962 186.022 321.967Z" fill="white"/>
<path d="M321.607 321.904C321.571 322.068 314.795 329.687 314.163 330.423C294.518 353.313 293.491 388.847 312.391 412.519C315.492 416.404 318.543 420.352 322.4 423.47C319.375 423.518 316.641 423.574 313.613 423.411C311.443 422.57 309.101 419.556 307.572 417.886C285.52 393.774 284.1 356.883 304.521 331.256C307.338 327.723 309.694 324.907 313.139 321.989C315.961 321.935 318.783 321.907 321.607 321.904Z" fill="white"/>
<path d="M389.775 204.127C392.424 204.042 394.656 204.06 397.309 204.143C406.062 210.651 414.747 225.34 417.922 235.604C423.097 252.397 421.443 270.552 413.319 286.134C410.907 290.696 401.448 304.67 396.491 306.182C393.81 306.25 391.019 306.171 388.33 306.134C390.613 304.548 395.765 298.871 397.625 296.487C416.587 272.16 417.459 241.605 399.383 216.499C397.45 213.863 395.339 211.356 393.158 208.926C392.3 207.969 389.148 205.179 389.055 204.296L389.775 204.127Z" fill="white"/>
<path d="M115.65 204.099C118.493 203.998 121.34 204.081 124.173 204.348C114.008 212.587 103.783 229.838 101.699 242.746C98.499 262.565 102.309 279.495 114.473 295.443C116.506 298.11 118.426 300.268 120.684 302.737C121.499 303.626 123.074 305.071 123.671 305.934L123.303 306.126C120.548 306.2 117.792 306.208 115.037 306.146C111.423 302.927 105.675 296.214 103.052 292.28C93.3262 277.601 89.7979 259.672 93.2373 242.401C95.6725 230.412 100.988 219.756 109.062 210.664C111.111 208.358 113.054 205.83 115.65 204.099Z" fill="white"/>
<path d="M115.016 321.933L123.948 321.95C95.2447 348.051 92.5914 388.317 117.744 416.994C119.642 419.158 121.835 421.018 123.651 423.072L123.956 423.422C120.966 423.541 118.138 423.518 115.15 423.495C113.468 422.124 112.058 420.592 110.559 419.043C87.4209 395.112 85.6575 357.134 106.463 331.151C109.136 327.816 111.847 324.898 115.016 321.933Z" fill="white"/>
<path d="M120.838 87.287C123.536 87.2619 126.329 87.3251 129.035 87.35C126.629 97.8014 121.625 111.384 118.493 121.801C114.221 136.06 109.823 150.28 105.298 164.46C103.338 170.659 101.503 177.418 99.3321 183.445C96.5936 183.479 93.8548 183.465 91.1172 183.403C91.7933 181.796 92.3613 180.121 92.8517 178.448C95.5482 169.257 98.4504 160.115 101.219 150.949L111.466 118.074C114.561 107.978 117.628 97.2833 120.838 87.287Z" fill="white"/>
<path d="M342.709 87.3096L350.243 87.3124C349.513 91.216 347.295 97.897 346.042 101.954L338.46 126.149C335.57 135.08 332.884 144.456 330.133 153.455L322.847 176.718C322.365 178.303 321.25 182.82 320.023 183.473C317.426 183.471 314.83 183.426 312.237 183.336C313.623 181.255 315.629 173.469 316.492 170.667L325.61 140.689C330.971 123.161 337.024 105.149 342.137 87.5861L342.709 87.3096Z" fill="white"/>
<path d="M147.209 87.3106C149.727 87.2637 152.245 87.2934 154.761 87.3997C155.187 90.2703 156.475 93.8031 157.263 96.6237C159.105 103.217 161.41 109.679 163.451 116.174L181.065 173.227C181.4 174.333 184.1 182.686 184.044 183.193L183.464 183.392L176.164 183.488C168.185 158.56 160.439 133.559 152.926 108.488C152.28 106.34 146.318 88.165 146.465 87.5084L147.209 87.3106Z" fill="white"/>
<path d="M368.304 87.3053L375.923 87.2715C376.495 91.753 380.909 103.638 382.415 108.594L401.702 171.259C402.266 173.134 405.334 182.007 405.266 183.195L404.69 183.41L397.436 183.466C395.816 177.417 392.963 169.569 391.081 163.356L370.973 97.8931C370.491 96.2994 367.519 88.1612 367.663 87.4572L368.304 87.3053Z" fill="white"/>
<path d="M158.443 206.25C161.556 206.222 164.669 206.234 167.782 206.288C173.228 215.783 179.79 226.033 185.543 235.489C182.868 235.62 180.84 235.592 178.154 235.502C173.84 229.4 169.572 223.265 165.351 217.097C164.628 216.182 163.935 215.054 163.292 214.065C158.355 221.191 153.526 228.582 148.405 235.565C145.667 235.637 143.261 235.589 140.536 235.508C142.273 233.574 157.838 208.51 158.443 206.25Z" fill="white"/>
<path d="M344.827 206.23C355.896 206.051 353.159 205.34 358.924 214.39C363.001 220.787 367.245 229.207 371.786 235.175L371.986 235.432C369.604 235.636 367.008 235.6 364.601 235.617C360.865 231.161 355.386 222.529 351.669 217.401C350.961 216.418 350.061 215.353 349.293 214.397C344.209 221.53 339.708 228.317 334.414 235.586C331.942 235.653 329.392 235.601 326.914 235.582C328.858 233.027 344.254 208.18 344.827 206.23Z" fill="white"/>
<path d="M233.242 416.585C235.497 416.503 237.833 416.517 240.093 416.54C254.454 416.698 268.927 416.283 283.278 416.633C282.934 418.428 283.115 422.516 283.149 424.514C279.551 424.901 270.71 424.647 266.551 424.647L233.191 424.621L233.242 416.585Z" fill="white"/>
<path d="M194.183 181.55C210.683 181.357 227.522 181.533 244.036 181.545C244.2 184.018 244.198 186.84 244.252 189.343C238.547 189.588 231.612 189.419 225.785 189.419L194.14 189.367L194.183 181.55Z" fill="white"/>
<path d="M252.549 181.542L302.663 181.55C302.824 184.139 302.77 186.785 302.756 189.383C286.655 189.748 268.678 189.456 252.518 189.379C252.504 186.767 252.515 184.154 252.549 181.542Z" fill="white"/>
<path d="M144.649 322.006C155.347 321.757 152.069 331.766 150.761 338.93C150.403 340.894 148.976 351.112 148.276 351.823L143.978 351.857C142.784 343.327 140.099 333.846 140.653 325.355C142.053 323.501 142.542 322.951 144.649 322.006Z" fill="white"/>
<path d="M162.429 322.001C172.486 321.75 169.712 329.882 168.939 337.097C168.754 338.827 166.5 351.254 166.101 351.832L161.789 351.863C160.694 345.921 157.507 331.535 158.584 325.443C158.81 324.165 161.078 322.585 162.429 322.001Z" fill="white"/>
<path d="M342.789 321.998C346.274 321.939 346.846 322.28 349.372 324.566C350.738 330.099 348.599 338.048 347.778 343.647C347.518 345.402 346.863 350.117 346.347 351.643L345.715 351.866L341.891 351.818C341.276 343.384 337.459 333.706 338.39 325.729C339.555 323.844 340.715 322.704 342.789 321.998Z" fill="white"/>
<path d="M360.538 322.006C367.457 321.755 368.032 325.827 367.414 331.685C366.717 338.276 365.431 345.119 364.056 351.617L363.461 351.902L359.618 351.767C358.709 344.1 355.346 331.721 356.61 325.178C357.984 323.448 358.438 322.726 360.538 322.006Z" fill="white"/>
<path d="M250.377 281.076C253.526 281.026 259.446 280.851 262.426 281.192C262.514 285.109 262.468 289.203 262.483 293.136C258.518 293.241 254.325 293.173 250.341 293.173C250.298 289.141 250.312 285.106 250.377 281.076Z" fill="white"/>
</svg>
