<svg width="126" height="72" viewBox="0 0 126 72" fill="none" xmlns="http://www.w3.org/2000/svg">
<path d="M60.8727 54.3295V71.0559H65.6V54.3295C64.8258 54.4263 64.0369 54.4762 63.2364 54.4762C62.4359 54.4762 61.6469 54.4263 60.8727 54.3295ZM68.2245 53.8099L74.9553 70.1233L79.3239 68.3131L72.5926 51.998C71.233 52.7751 69.7682 53.388 68.2245 53.8099ZM74.8316 50.4966L90.4182 66.1158L93.761 62.766L78.1744 47.147C77.204 48.3982 76.0799 49.5241 74.8316 50.4966ZM79.6678 44.9116L108.626 56.9317L110.436 52.5555L81.4779 40.536C81.056 42.0823 80.4438 43.55 79.6678 44.9116ZM81.9991 37.8965H126V33.1594H81.9991C82.0956 33.9353 82.1455 34.7258 82.1455 35.528C82.1455 36.3301 82.0956 37.1206 81.9991 37.8965ZM81.4779 30.5202L110.436 18.5004L108.626 14.1242L79.6673 26.1439C80.4434 27.5058 81.056 28.9736 81.4779 30.5202ZM78.1739 23.9086L93.761 8.28986L90.4182 4.94014L74.8316 20.5591C76.0799 21.5316 77.2035 22.6575 78.1739 23.9086ZM72.5921 19.0579L79.3239 2.74278L74.9553 0.932609L68.2245 17.246C69.7682 17.6679 71.2326 18.2808 72.5921 19.0579ZM65.6 16.7264V0H60.8727V16.7264C61.6469 16.6296 62.4359 16.5797 63.2364 16.5797C64.0369 16.5797 64.8258 16.6296 65.6 16.7264ZM58.2483 17.246L51.5174 0.932609L47.1489 2.74278L53.8801 19.058C55.2397 18.2808 56.7045 17.6679 58.2483 17.246ZM51.6412 20.5593L35.8182 4.70329L32.4754 8.053L48.2984 23.9089C49.2688 22.6577 50.3929 21.5318 51.6412 20.5593ZM46.8049 26.1442L17.8462 14.1242L16.037 18.5004L44.9948 30.5202C45.4168 28.9736 46.0289 27.5061 46.8049 26.1442ZM44.4736 33.1594H0V37.8965H44.4736C44.3771 37.1206 44.3273 36.3301 44.3273 35.528C44.3273 34.7258 44.3771 33.9353 44.4736 33.1594ZM44.9948 40.536L16.037 52.5555L17.8462 56.9317L46.8049 44.9115C46.0289 43.5498 45.4168 42.0823 44.9948 40.536ZM48.2984 47.1469L32.4754 63.0029L35.8182 66.3526L51.6407 50.4965C50.3924 49.524 49.2688 48.398 48.2984 47.1469ZM51.5174 70.1233L58.2483 53.8099C56.7045 53.388 55.2397 52.775 53.8801 51.9978L47.1489 68.3131L51.5174 70.1233Z" fill="#059669"/>
<path d="M77.4182 35.528C77.4182 27.6793 71.0688 21.3168 63.2364 21.3168C55.404 21.3168 49.0545 27.6793 49.0545 35.528C49.0545 43.3766 55.404 49.7391 63.2364 49.7391V54.4762C52.7932 54.4762 44.3273 45.9928 44.3273 35.528C44.3273 25.0631 52.7932 16.5797 63.2364 16.5797C73.6796 16.5797 82.1455 25.0631 82.1455 35.528C82.1455 45.9928 73.6796 54.4762 63.2364 54.4762V49.7391C71.0688 49.7391 77.4182 43.3766 77.4182 35.528Z" fill="#059669"/>
<path d="M53.3091 35.528C53.3091 30.0339 57.7537 25.5801 63.2364 25.5801V30.3172C60.3645 30.3172 58.0364 32.6501 58.0364 35.528C58.0364 38.4058 60.3645 40.7387 63.2364 40.7387V45.4758C57.7537 45.4758 53.3091 41.022 53.3091 35.528Z" fill="#059669"/>
</svg>
