<svg width="345" height="80" viewBox="0 0 345 80" fill="none" xmlns="http://www.w3.org/2000/svg">
<path d="M60.8727 62.3295V79.0559H65.6V62.3295C64.8258 62.4263 64.0369 62.4762 63.2364 62.4762C62.4359 62.4762 61.6469 62.4263 60.8727 62.3295ZM68.2245 61.8099L74.9553 78.1233L79.3239 76.3131L72.5926 59.998C71.233 60.7751 69.7682 61.388 68.2245 61.8099ZM74.8316 58.4966L90.4182 74.1158L93.761 70.766L78.1744 55.147C77.204 56.3982 76.0799 57.5241 74.8316 58.4966ZM79.6678 52.9116L108.626 64.9317L110.436 60.5555L81.4779 48.536C81.056 50.0823 80.4438 51.55 79.6678 52.9116ZM81.9991 45.8965H126V41.1594H81.9991C82.0956 41.9353 82.1455 42.7258 82.1455 43.528C82.1455 44.3301 82.0956 45.1206 81.9991 45.8965ZM81.4779 38.5202L110.436 26.5004L108.626 22.1242L79.6673 34.1439C80.4434 35.5058 81.056 36.9736 81.4779 38.5202ZM78.1739 31.9086L93.761 16.2899L90.4182 12.9401L74.8316 28.5591C76.0799 29.5316 77.2035 30.6575 78.1739 31.9086ZM72.5921 27.0579L79.3239 10.7428L74.9553 8.93261L68.2245 25.246C69.7682 25.6679 71.2326 26.2808 72.5921 27.0579ZM65.6 24.7264V8H60.8727V24.7264C61.6469 24.6296 62.4359 24.5797 63.2364 24.5797C64.0369 24.5797 64.8258 24.6296 65.6 24.7264ZM58.2483 25.246L51.5174 8.93261L47.1489 10.7428L53.8801 27.058C55.2397 26.2808 56.7045 25.6679 58.2483 25.246ZM51.6412 28.5593L35.8182 12.7033L32.4754 16.053L48.2984 31.9089C49.2688 30.6577 50.3929 29.5318 51.6412 28.5593ZM46.8049 34.1442L17.8462 22.1242L16.037 26.5004L44.9948 38.5202C45.4168 36.9736 46.0289 35.5061 46.8049 34.1442ZM44.4736 41.1594H0V45.8965H44.4736C44.3771 45.1206 44.3273 44.3301 44.3273 43.528C44.3273 42.7258 44.3771 41.9353 44.4736 41.1594ZM44.9948 48.536L16.037 60.5555L17.8462 64.9317L46.8049 52.9115C46.0289 51.5498 45.4168 50.0823 44.9948 48.536ZM48.2984 55.1469L32.4754 71.0029L35.8182 74.3526L51.6407 58.4965C50.3924 57.524 49.2688 56.398 48.2984 55.1469ZM51.5174 78.1233L58.2483 61.8099C56.7045 61.388 55.2397 60.775 53.8801 59.9978L47.1489 76.3131L51.5174 78.1233Z" fill="#059669"/>
<path d="M77.4182 43.528C77.4182 35.6793 71.0688 29.3168 63.2364 29.3168C55.404 29.3168 49.0545 35.6793 49.0545 43.528C49.0545 51.3766 55.404 57.7391 63.2364 57.7391V62.4762C52.7932 62.4762 44.3273 53.9928 44.3273 43.528C44.3273 33.0631 52.7932 24.5797 63.2364 24.5797C73.6796 24.5797 82.1455 33.0631 82.1455 43.528C82.1455 53.9928 73.6796 62.4762 63.2364 62.4762V57.7391C71.0688 57.7391 77.4182 51.3766 77.4182 43.528Z" fill="#059669"/>
<path d="M53.3091 43.528C53.3091 38.0339 57.7537 33.5801 63.2364 33.5801V38.3172C60.3645 38.3172 58.0364 40.6501 58.0364 43.528C58.0364 46.4058 60.3645 48.7387 63.2364 48.7387V53.4758C57.7537 53.4758 53.3091 49.022 53.3091 43.528Z" fill="#059669"/>
<path d="M162.074 58.4646C157.661 58.4646 154.138 57.0128 151.505 54.1091C148.911 51.1668 147.614 47.5856 147.614 43.3656C147.614 39.1457 148.911 35.5839 151.505 32.6802C154.138 29.7379 157.661 28.2667 162.074 28.2667C165.597 28.2667 168.636 29.2346 171.192 31.1703C173.786 33.1061 175.276 35.7 175.663 38.9521H170.03C169.759 37.2873 168.888 35.9129 167.417 34.8289C165.946 33.7449 164.204 33.2029 162.19 33.2029C159.403 33.2029 157.254 34.1708 155.744 36.1065C154.234 38.0036 153.479 40.4233 153.479 43.3656C153.479 46.308 154.234 48.7471 155.744 50.6828C157.293 52.5799 159.461 53.5284 162.248 53.5284C164.223 53.5284 165.907 53.0444 167.301 52.0766C168.694 51.1087 169.624 49.7924 170.088 48.1276H175.663C175.199 51.2248 173.747 53.722 171.308 55.619C168.869 57.5161 165.791 58.4646 162.074 58.4646ZM205.554 28.7313V58H199.921V52.8315C199.147 54.6511 197.927 56.0449 196.262 57.0128C194.598 57.9806 192.662 58.4646 190.455 58.4646C187.164 58.4646 184.512 57.3806 182.499 55.2125C180.525 53.0444 179.537 50.2182 179.537 46.7339V28.7313H185.17V45.6305C185.17 47.9534 185.79 49.8311 187.029 51.2635C188.306 52.696 189.971 53.4122 192.023 53.4122C194.307 53.4122 196.185 52.5799 197.656 50.9151C199.166 49.2504 199.921 47.1404 199.921 44.5852V28.7313H205.554ZM224.72 33.6094C219.997 33.6094 217.635 37.3261 217.635 44.7594V58H212.002V28.7313H217.635V34.3643C218.293 32.3899 219.242 30.9574 220.481 30.0669C221.719 29.1765 223.365 28.7313 225.417 28.7313H228.959V33.6094H224.72ZM232.094 58V28.7313H237.727V58H232.094ZM231.745 16.4779H238.017V23.5628H231.745V16.4779ZM268.115 54.2253C265.289 57.0515 261.689 58.4646 257.314 58.4646C252.939 58.4646 249.319 57.0515 246.454 54.2253C243.628 51.3603 242.215 47.7405 242.215 43.3656C242.215 38.9908 243.628 35.3903 246.454 32.5641C249.319 29.6991 252.939 28.2667 257.314 28.2667C261.689 28.2667 265.289 29.6991 268.115 32.5641C270.941 35.3903 272.355 38.9908 272.355 43.3656C272.355 47.7405 270.941 51.3603 268.115 54.2253ZM257.314 53.5284C260.063 53.5284 262.289 52.5799 263.992 50.6828C265.734 48.7858 266.605 46.3467 266.605 43.3656C266.605 40.3846 265.734 37.9455 263.992 36.0484C262.289 34.1514 260.063 33.2029 257.314 33.2029C254.526 33.2029 252.261 34.1514 250.519 36.0484C248.816 37.9455 247.964 40.3846 247.964 43.3656C247.964 46.3467 248.816 48.7858 250.519 50.6828C252.261 52.5799 254.526 53.5284 257.314 53.5284ZM286.569 58.4646C283.124 58.4646 280.336 57.5741 278.207 55.7932C276.077 54.0123 274.916 51.5733 274.722 48.476H280.007C280.162 50.1408 280.801 51.4378 281.923 52.3669C283.085 53.2961 284.634 53.7607 286.569 53.7607C288.195 53.7607 289.512 53.3735 290.518 52.5992C291.564 51.8249 292.086 50.8958 292.086 49.8117C292.086 48.418 291.505 47.392 290.344 46.7339C289.221 46.037 287.847 45.5918 286.221 45.3982C284.595 45.1659 282.969 44.8755 281.343 44.5271C279.717 44.1399 278.323 43.3269 277.161 42.088C276.039 40.8104 275.477 39.0102 275.477 36.6873C275.477 34.1708 276.445 32.1382 278.381 30.5896C280.317 29.041 282.814 28.2667 285.872 28.2667C289.163 28.2667 291.835 29.1184 293.886 30.8219C295.977 32.4866 297.119 34.6934 297.313 37.4422H291.97C291.776 35.8936 291.06 34.7321 289.821 33.9578C288.621 33.1448 287.305 32.7383 285.872 32.7383C284.324 32.7383 283.085 33.0867 282.156 33.7836C281.227 34.4805 280.762 35.3903 280.762 36.513C280.762 37.8294 281.343 38.7779 282.504 39.3586C283.666 39.9393 285.059 40.3265 286.685 40.5201C288.311 40.6749 289.938 40.9459 291.564 41.3331C293.228 41.7202 294.641 42.5913 295.803 43.9464C296.964 45.3014 297.545 47.2178 297.545 49.6956C297.545 52.3669 296.538 54.4963 294.525 56.0836C292.551 57.6709 289.899 58.4646 286.569 58.4646ZM302.18 58V28.7313H307.814V58H302.18ZM301.832 16.4779H308.104V23.5628H301.832V16.4779ZM326.529 58C323.548 58 321.167 57.1483 319.386 55.4448C317.644 53.7413 316.773 51.399 316.773 48.418V33.6094H310.792V28.7313H315.089C316.212 28.7313 316.773 28.1699 316.773 27.0472V19.5557H322.406V28.7313H331.059V33.6094H322.406V48.2438C322.406 49.7924 322.813 50.9925 323.626 51.8443C324.439 52.696 325.542 53.1219 326.936 53.1219H331.059V58H326.529ZM334.878 58V28.7313H340.511V58H334.878ZM334.53 16.4779H340.802V23.5628H334.53V16.4779Z" fill="white"/>
</svg>
