<svg width="768" height="372" viewBox="0 0 768 372" fill="none" xmlns="http://www.w3.org/2000/svg">
<mask id="mask0_329_10186" style="mask-type:alpha" maskUnits="userSpaceOnUse" x="0" y="0" width="768" height="372">
<rect width="768" height="372" fill="url(#paint0_radial_329_10186)"/>
</mask>
<g mask="url(#mask0_329_10186)">
<path d="M383.387 -134.25L383.387 637" stroke="#E7E5E4"/>
<path d="M1075.99 111.425L-309.214 111.425" stroke="#E7E5E4"/>
<path d="M921.637 -113.824L-154.855 336.673" stroke="#E7E5E4"/>
<path d="M-154.855 -113.824L921.637 336.673" stroke="#E7E5E4"/>
<path d="M-29.1772 524.003L795.984 -301.158" stroke="#E7E5E4"/>
<path d="M795.983 524.003L-29.1776 -301.158" stroke="#E7E5E4"/>
<circle cx="384" cy="112" r="13" fill="#F5F5F4"/>
<circle cx="384" cy="112" r="48.5" stroke="#E7E5E4"/>
<circle cx="384" cy="112" r="72.5" stroke="#E7E5E4"/>
<circle cx="384" cy="112" r="96.5" stroke="#E7E5E4"/>
<circle cx="384" cy="112" r="120.5" stroke="#E7E5E4"/>
</g>
<path d="M382.206 127.858V141.965H386.193V127.858C385.54 127.94 384.874 127.982 384.199 127.982C383.524 127.982 382.859 127.94 382.206 127.858ZM388.406 127.42L394.083 141.179L397.768 139.652L392.091 125.891C390.944 126.547 389.708 127.064 388.406 127.42ZM393.979 124.625L407.125 137.799L409.945 134.973L396.798 121.8C395.98 122.855 395.032 123.805 393.979 124.625ZM398.058 119.915L422.483 130.053L424.009 126.362L399.585 116.224C399.229 117.528 398.713 118.766 398.058 119.915ZM400.024 113.998H437.136V110.002H400.024C400.106 110.657 400.148 111.323 400.148 112C400.148 112.677 400.106 113.343 400.024 113.998ZM399.585 107.776L424.009 97.6385L422.483 93.9475L398.058 104.085C398.712 105.234 399.229 106.472 399.585 107.776ZM396.798 102.2L409.945 89.0266L407.125 86.2013L393.979 99.3749C395.032 100.195 395.98 101.145 396.798 102.2ZM392.09 98.1087L397.768 84.348L394.083 82.8213L388.406 96.5805C389.708 96.9363 390.943 97.4533 392.09 98.1087ZM386.193 96.1422V82.0347H382.206V96.1422C382.859 96.0605 383.524 96.0185 384.199 96.0185C384.874 96.0185 385.54 96.0605 386.193 96.1422ZM379.992 96.5805L374.315 82.8213L370.631 84.348L376.308 98.1088C377.455 97.4533 378.69 96.9363 379.992 96.5805ZM374.419 99.375L361.074 86.0016L358.255 88.8268L371.6 102.2C372.419 101.145 373.367 100.195 374.419 99.375ZM370.34 104.085L345.916 93.9475L344.39 97.6385L368.814 107.776C369.17 106.472 369.686 105.234 370.34 104.085ZM368.374 110.002H330.864V113.998H368.374C368.293 113.343 368.251 112.677 368.251 112C368.251 111.323 368.293 110.657 368.374 110.002ZM368.814 116.224L344.39 126.362L345.916 130.053L370.34 119.914C369.686 118.766 369.17 117.528 368.814 116.224ZM371.6 121.8L358.255 135.173L361.074 137.998L374.419 124.625C373.366 123.805 372.419 122.855 371.6 121.8ZM374.315 141.179L379.992 127.42C378.69 127.064 377.455 126.547 376.308 125.891L370.631 139.652L374.315 141.179Z" fill="#059669"/>
<path d="M396.161 112C396.161 105.38 390.805 100.014 384.199 100.014C377.593 100.014 372.238 105.38 372.238 112C372.238 118.62 377.593 123.986 384.199 123.986V127.982C375.391 127.982 368.251 120.826 368.251 112C368.251 103.174 375.391 96.0185 384.199 96.0185C393.007 96.0185 400.148 103.174 400.148 112C400.148 120.826 393.007 127.982 384.199 127.982V123.986C390.805 123.986 396.161 118.62 396.161 112Z" fill="#059669"/>
<path d="M375.826 112C375.826 107.366 379.575 103.61 384.199 103.61V107.605C381.777 107.605 379.813 109.573 379.813 112C379.813 114.427 381.777 116.395 384.199 116.395V120.39C379.575 120.39 375.826 116.634 375.826 112Z" fill="#059669"/>
<defs>
<radialGradient id="paint0_radial_329_10186" cx="0" cy="0" r="1" gradientUnits="userSpaceOnUse" gradientTransform="translate(384 118.655) rotate(90) scale(290.411 464.084)">
<stop stop-color="#D9D9D9"/>
<stop offset="1" stop-color="#D9D9D9" stop-opacity="0"/>
</radialGradient>
</defs>
</svg>
