<svg width="128" height="128" viewBox="0 0 128 128" fill="none" xmlns="http://www.w3.org/2000/svg">
<rect width="128" height="128" fill="#022C22"/>
<path d="M62.0922 80.9346V96H66.3317V80.9346C65.6374 81.0218 64.9299 81.0667 64.212 81.0667C63.4941 81.0667 62.7865 81.0218 62.0922 80.9346ZM68.6854 80.4666L74.7218 95.16L78.6397 93.5296L72.6029 78.8346C71.3836 79.5345 70.0699 80.0866 68.6854 80.4666ZM74.6108 77.4823L88.5893 91.5504L91.5872 88.5333L77.6088 74.4653C76.7385 75.5922 75.7303 76.6064 74.6108 77.4823ZM78.9481 72.4519L104.919 83.2783L106.542 79.3367L80.5715 68.5107C80.193 69.9035 79.6441 71.2254 78.9481 72.4519ZM81.0389 66.1333H120.5V61.8667H81.0389C81.1254 62.5655 81.1701 63.2775 81.1701 64C81.1701 64.7225 81.1254 65.4345 81.0389 66.1333ZM80.5715 59.4895L106.542 48.6633L104.919 44.7217L78.9477 55.5478C79.6436 56.7745 80.193 58.0965 80.5715 59.4895ZM77.6083 53.5345L91.5872 39.4667L88.5893 36.4496L74.6108 50.5176C75.7303 51.3935 76.7381 52.4076 77.6083 53.5345ZM72.6025 49.1654L78.6397 34.4704L74.7218 32.84L68.6854 47.5334C70.0699 47.9134 71.3832 48.4655 72.6025 49.1654ZM66.3317 47.0654V32H62.0922V47.0654C62.7865 46.9782 63.4941 46.9333 64.212 46.9333C64.9299 46.9333 65.6374 46.9782 66.3317 47.0654ZM59.7385 47.5334L53.7021 32.84L49.7843 34.4704L55.8211 49.1655C57.0404 48.4655 58.354 47.9134 59.7385 47.5334ZM53.8131 50.5177L39.6227 36.2363L36.6248 39.2533L50.8152 53.5347C51.6855 52.4078 52.6936 51.3936 53.8131 50.5177ZM49.4759 55.548L23.505 44.7217L21.8824 48.6633L47.8525 59.4895C48.2309 58.0965 48.7799 56.7747 49.4759 55.548ZM47.3851 61.8667H7.5V66.1333H47.3851C47.2985 65.4345 47.2538 64.7225 47.2538 64C47.2538 63.2775 47.2985 62.5655 47.3851 61.8667ZM47.8525 68.5107L21.8824 79.3367L23.505 83.2783L49.4759 72.4518C48.7799 71.2253 48.2309 69.9035 47.8525 68.5107ZM50.8152 74.4652L36.6248 88.7467L39.6227 91.7637L53.8127 77.4822C52.6932 76.6063 51.6855 75.5921 50.8152 74.4652ZM53.7021 95.16L59.7385 80.4666C58.354 80.0866 57.0404 79.5344 55.8211 78.8344L49.7843 93.5296L53.7021 95.16Z" fill="#059669"/>
<path d="M76.9306 64C76.9306 56.9308 71.2363 51.2 64.212 51.2C57.1877 51.2 51.4934 56.9308 51.4934 64C51.4934 71.0692 57.1877 76.8 64.212 76.8V81.0667C54.8462 81.0667 47.2538 73.4257 47.2538 64C47.2538 54.5743 54.8462 46.9333 64.212 46.9333C73.5777 46.9333 81.1701 54.5743 81.1701 64C81.1701 73.4257 73.5777 81.0667 64.212 81.0667V76.8C71.2363 76.8 76.9306 71.0692 76.9306 64Z" fill="#059669"/>
<path d="M55.3089 64C55.3089 59.0515 59.295 55.04 64.212 55.04V59.3067C61.6364 59.3067 59.5485 61.4079 59.5485 64C59.5485 66.5921 61.6364 68.6933 64.212 68.6933V72.96C59.295 72.96 55.3089 68.9485 55.3089 64Z" fill="#059669"/>
</svg>
