<svg width="1024" height="768" viewBox="0 0 1024 768" fill="none" xmlns="http://www.w3.org/2000/svg">
<g clip-path="url(#clip0_16_556)" filter="url(#filter0_n_16_556)">
<rect width="1024" height="768" fill="#022C22"/>
<g filter="url(#filter1_f_16_556)">
<circle cx="513.533" cy="366.531" r="12.4937" stroke="url(#paint0_radial_16_556)" stroke-width="0.6"/>
<circle cx="513.533" cy="366.531" r="5.6336" stroke="url(#paint1_radial_16_556)" stroke-width="0.6"/>
<circle cx="513.533" cy="366.531" r="21.6376" stroke="url(#paint2_radial_16_556)" stroke-width="0.6"/>
<circle cx="513.533" cy="366.531" r="35.9419" stroke="url(#paint3_radial_16_556)" stroke-width="0.6"/>
<circle cx="513.534" cy="366.531" r="52.5135" stroke="url(#paint4_radial_16_556)" stroke-width="0.6"/>
<circle cx="513.533" cy="366.531" r="72.9946" stroke="url(#paint5_radial_16_556)" stroke-width="0.6"/>
<circle cx="513.534" cy="366.531" r="96.1042" stroke="url(#paint6_radial_16_556)" stroke-width="0.6"/>
<circle cx="513.533" cy="366.531" r="118.269" stroke="url(#paint7_radial_16_556)" stroke-width="0.6"/>
<circle cx="513.533" cy="366.531" r="138.567" stroke="url(#paint8_radial_16_556)" stroke-width="0.6"/>
<circle cx="513.534" cy="366.531" r="163.615" stroke="url(#paint9_radial_16_556)" stroke-width="0.6"/>
<circle cx="513.533" cy="366.531" r="188.81" stroke="url(#paint10_radial_16_556)" stroke-width="0.6"/>
<circle cx="513.533" cy="366.531" r="218.779" stroke="url(#paint11_radial_16_556)" stroke-width="0.6"/>
<circle cx="513.533" cy="366.531" r="250.644" stroke="url(#paint12_radial_16_556)" stroke-width="0.6"/>
<circle cx="513.533" cy="366.531" r="282.508" stroke="url(#paint13_radial_16_556)" stroke-width="0.6"/>
<circle cx="513.533" cy="366.531" r="317.185" stroke="url(#paint14_radial_16_556)" stroke-width="0.6"/>
<circle cx="513.534" cy="366.531" r="353.583" stroke="url(#paint15_radial_16_556)" stroke-width="0.6"/>
<circle cx="513.534" cy="366.531" r="389.594" stroke="url(#paint16_radial_16_556)" stroke-width="0.6"/>
<circle cx="513.534" cy="366.531" r="424.727" stroke="url(#paint17_radial_16_556)" stroke-width="0.6"/>
</g>
<g opacity="0.6" filter="url(#filter2_f_16_556)">
<circle cx="1063.16" cy="760.78" r="40.5253" stroke="url(#paint18_radial_16_556)" stroke-width="0.6"/>
<circle cx="1063.16" cy="760.78" r="56.3573" stroke="url(#paint19_radial_16_556)" stroke-width="0.6"/>
<circle cx="1063.16" cy="760.78" r="74.2213" stroke="url(#paint20_radial_16_556)" stroke-width="0.6"/>
<circle cx="1063.16" cy="760.78" r="91.3549" stroke="url(#paint21_radial_16_556)" stroke-width="0.6"/>
<circle cx="1063.16" cy="760.78" r="107.045" stroke="url(#paint22_radial_16_556)" stroke-width="0.6"/>
<circle cx="1063.16" cy="760.78" r="126.408" stroke="url(#paint23_radial_16_556)" stroke-width="0.6"/>
<circle cx="1063.16" cy="760.78" r="145.884" stroke="url(#paint24_radial_16_556)" stroke-width="0.6"/>
<circle cx="1063.16" cy="760.78" r="169.05" stroke="url(#paint25_radial_16_556)" stroke-width="0.6"/>
<circle cx="1063.16" cy="760.78" r="193.681" stroke="url(#paint26_radial_16_556)" stroke-width="0.6"/>
<circle cx="1063.16" cy="760.78" r="218.313" stroke="url(#paint27_radial_16_556)" stroke-width="0.6"/>
<circle cx="1063.16" cy="760.78" r="245.119" stroke="url(#paint28_radial_16_556)" stroke-width="0.6"/>
<circle cx="1063.16" cy="760.78" r="273.255" stroke="url(#paint29_radial_16_556)" stroke-width="0.6"/>
<circle cx="1063.16" cy="760.78" r="301.091" stroke="url(#paint30_radial_16_556)" stroke-width="0.6"/>
<circle cx="1063.16" cy="760.78" r="328.249" stroke="url(#paint31_radial_16_556)" stroke-width="0.6"/>
</g>
<g opacity="0.3" filter="url(#filter3_f_16_556)">
<circle cx="-31.2254" cy="196.947" r="37.5424" stroke="url(#paint32_radial_16_556)" stroke-width="0.6"/>
<circle cx="-31.225" cy="196.947" r="49.4741" stroke="url(#paint33_radial_16_556)" stroke-width="0.6"/>
<circle cx="-31.2257" cy="196.947" r="60.9179" stroke="url(#paint34_radial_16_556)" stroke-width="0.6"/>
<circle cx="-31.2256" cy="196.947" r="71.3979" stroke="url(#paint35_radial_16_556)" stroke-width="0.6"/>
<circle cx="-31.2255" cy="196.947" r="84.3305" stroke="url(#paint36_radial_16_556)" stroke-width="0.6"/>
<circle cx="-31.2253" cy="196.947" r="97.3387" stroke="url(#paint37_radial_16_556)" stroke-width="0.6"/>
<circle cx="-31.2257" cy="196.947" r="112.812" stroke="url(#paint38_radial_16_556)" stroke-width="0.6"/>
<circle cx="-31.2254" cy="196.947" r="129.264" stroke="url(#paint39_radial_16_556)" stroke-width="0.6"/>
<circle cx="-31.2253" cy="196.947" r="145.716" stroke="url(#paint40_radial_16_556)" stroke-width="0.6"/>
<circle cx="-31.2257" cy="196.947" r="163.619" stroke="url(#paint41_radial_16_556)" stroke-width="0.6"/>
<circle cx="-31.2248" cy="196.947" r="182.412" stroke="url(#paint42_radial_16_556)" stroke-width="0.6"/>
<circle cx="-31.2251" cy="196.947" r="201.004" stroke="url(#paint43_radial_16_556)" stroke-width="0.6"/>
<circle cx="-31.2251" cy="196.947" r="219.144" stroke="url(#paint44_radial_16_556)" stroke-width="0.6"/>
</g>
<g filter="url(#filter4_f_16_556)">
<path d="M103.973 787.381C7.56504 752.494 -57.4531 262.948 -77.9111 22.5355L-117.094 266.61L-83.5397 738.03L51.0526 1110.56L545.68 1048.61L998.612 887.567C1049.79 891.954 1176.15 859.991 1272.11 697.044C1368.07 534.096 1260.78 412.916 1195.14 372.694L1009.26 607.015L702.503 727.001L397.363 817.23C339.737 821.817 200.381 822.268 103.973 787.381Z" fill="#059669"/>
</g>
<g filter="url(#filter5_f_16_556)">
<path d="M776.547 42.1466C737.87 23.1725 702.577 -217.632 689.766 -335.663L679.149 -217.019L701.686 14.2952L762.08 199.224L955.755 178.685L1131.04 108.842C1151.3 111.999 1200.45 98.8575 1235.04 21.0283C1269.64 -56.801 1224.97 -118.211 1198.31 -139.187L1129.7 -28.2135L1011.19 24.4304L892.742 62.5475C870.126 63.6531 815.224 61.1206 776.547 42.1466Z" fill="#059669"/>
</g>
<g opacity="0.6" filter="url(#filter6_f_16_556)">
<path d="M-82.0087 -155.647C-70.3947 -197.133 159.958 -275.684 273.682 -309.774L155.089 -298.609L-68.2546 -234.329L-239.094 -141.27L-183.632 45.4274L-83.0376 205.067C-82.4544 225.557 -60.5813 271.499 22.2455 291.339C105.072 311.18 157.321 256.074 173.093 226.042L51.4808 178.785L-21.8613 71.8506L-80.9103 -37.6802C-86.1157 -59.7169 -93.6228 -114.162 -82.0087 -155.647Z" fill="#059669"/>
</g>
<g filter="url(#filter7_f_16_556)">
<path d="M766.233 27.1874C704.991 46.7905 325.57 -157.374 143.515 -261.906L305.999 -133.471L660.542 73.9465L980.994 197.636L1120.39 -15.3323L1172.35 -259.006C1194.6 -276.007 1218.5 -337.937 1136.04 -449.657C1053.58 -561.377 925.669 -577.978 872.023 -572.314L972.76 -393.838L945.49 -223.713L897.233 -68.0702C879.084 -44.4856 827.476 7.58433 766.233 27.1874Z" fill="#022C22"/>
</g>
<g filter="url(#filter8_f_16_556)">
<path d="M540.036 -79.0652C474.37 -113.439 410.457 -541.542 386.708 -751.297L370.897 -540.872L413.096 -129.845L518.41 199.516L845.163 166.518L1139.98 45.6674C1174.25 51.635 1257.04 29.1847 1314.07 -108.358C1371.1 -245.9 1294.56 -355.712 1249.15 -393.426L1135.25 -197.654L936.043 -106.32L736.656 -40.7728C698.477 -39.2145 605.702 -44.6914 540.036 -79.0652Z" fill="#059669"/>
</g>
<path d="M257.444 433.956C257.122 433.956 256.961 433.838 256.961 433.602C256.961 433.409 257.1 433.28 257.379 433.215L258.12 433.086C258.571 433.001 258.861 432.882 258.99 432.732C259.14 432.582 259.216 432.281 259.216 431.83V412.888C259.216 412.437 259.14 412.136 258.99 411.986C258.861 411.835 258.571 411.717 258.12 411.631L257.379 411.502C257.1 411.438 256.961 411.309 256.961 411.116C256.961 410.879 257.122 410.761 257.444 410.761H267.817C268.311 410.761 268.58 411.008 268.622 411.502L268.88 416.85C268.923 417.215 268.784 417.398 268.461 417.398C268.204 417.398 268.053 417.258 268.01 416.979L267.849 415.916C267.677 414.799 267.377 413.929 266.947 413.306C266.518 412.684 266.035 412.243 265.498 411.986C264.961 411.706 264.445 411.567 263.951 411.567C263.006 411.567 262.362 411.717 262.018 412.018C261.675 412.318 261.503 412.78 261.503 413.403V421.006C261.503 421.306 261.653 421.457 261.954 421.457H263.081C264.026 421.457 264.606 420.952 264.821 419.943L265.175 418.332C265.24 418.053 265.401 417.913 265.659 417.913C265.916 417.913 266.045 418.096 266.045 418.461V425.709C266.045 426.074 265.916 426.257 265.659 426.257C265.401 426.257 265.24 426.117 265.175 425.838L264.821 424.26C264.671 423.508 264.456 423.014 264.177 422.778C263.919 422.541 263.543 422.423 263.049 422.423H261.954C261.653 422.423 261.503 422.574 261.503 422.874V431.669C261.503 432.12 261.567 432.442 261.696 432.635C261.847 432.807 262.147 432.925 262.598 432.99L264.112 433.215C264.349 433.258 264.467 433.376 264.467 433.57C264.467 433.827 264.306 433.956 263.983 433.956H257.444ZM272.472 414.466C272.021 414.466 271.634 414.305 271.312 413.983C271.011 413.661 270.861 413.253 270.861 412.759C270.861 412.265 271.011 411.867 271.312 411.567C271.634 411.245 272.021 411.084 272.472 411.084C272.923 411.084 273.299 411.245 273.599 411.567C273.9 411.867 274.05 412.265 274.05 412.759C274.05 413.253 273.9 413.661 273.599 413.983C273.299 414.305 272.923 414.466 272.472 414.466ZM269.766 433.956C269.443 433.956 269.282 433.838 269.282 433.602C269.282 433.409 269.422 433.28 269.701 433.215L270.088 433.151C270.625 433.065 270.968 432.936 271.119 432.764C271.269 432.571 271.344 432.249 271.344 431.798V420.974C271.344 420.587 271.28 420.329 271.151 420.2C271.043 420.05 270.839 419.953 270.539 419.91L269.862 419.814C269.583 419.792 269.443 419.674 269.443 419.459C269.443 419.288 269.615 419.17 269.959 419.105C270.625 418.998 271.162 418.826 271.57 418.59C271.978 418.353 272.375 418.063 272.762 417.72C272.955 417.527 273.116 417.43 273.245 417.43C273.438 417.43 273.535 417.559 273.535 417.816V431.798C273.535 432.249 273.599 432.571 273.728 432.764C273.857 432.958 274.104 433.076 274.469 433.119L275.274 433.215C275.511 433.258 275.629 433.376 275.629 433.57C275.629 433.827 275.468 433.956 275.146 433.956H269.766ZM276.616 433.956C276.294 433.956 276.133 433.838 276.133 433.602C276.133 433.409 276.273 433.28 276.552 433.215L276.939 433.151C277.39 433.065 277.679 432.936 277.808 432.764C277.959 432.571 278.034 432.249 278.034 431.798V420.974C278.034 420.587 277.969 420.329 277.841 420.2C277.733 420.05 277.529 419.953 277.228 419.91L276.552 419.814C276.273 419.792 276.133 419.674 276.133 419.459C276.133 419.288 276.305 419.17 276.649 419.105C277.314 418.998 277.819 418.826 278.163 418.59C278.528 418.353 278.904 418.063 279.29 417.72C279.484 417.527 279.645 417.43 279.773 417.43C279.967 417.43 280.063 417.559 280.063 417.816V419.266C280.063 419.459 280.128 419.588 280.257 419.653C280.407 419.696 280.568 419.631 280.74 419.459C281.599 418.643 282.351 418.085 282.995 417.784C283.661 417.484 284.359 417.333 285.089 417.333C286.055 417.333 286.829 417.677 287.408 418.364C287.988 419.03 288.278 420.018 288.278 421.328V431.798C288.278 432.249 288.343 432.571 288.472 432.764C288.622 432.936 288.923 433.054 289.374 433.119L290.082 433.215C290.319 433.258 290.437 433.387 290.437 433.602C290.437 433.838 290.308 433.956 290.05 433.956H284.638C284.337 433.956 284.187 433.838 284.187 433.602C284.187 433.387 284.305 433.258 284.541 433.215L284.992 433.151C285.443 433.086 285.733 432.958 285.862 432.764C286.012 432.571 286.088 432.249 286.088 431.798V421.682C286.088 420.63 285.894 419.889 285.508 419.459C285.121 419.03 284.574 418.815 283.865 418.815C283.178 418.815 282.555 419.019 281.996 419.427C281.459 419.814 281.03 420.34 280.708 421.006C280.386 421.65 280.224 422.37 280.224 423.164V431.798C280.224 432.249 280.289 432.571 280.418 432.764C280.568 432.958 280.869 433.076 281.32 433.119L282.19 433.215C282.426 433.258 282.544 433.376 282.544 433.57C282.544 433.827 282.383 433.956 282.061 433.956H276.616ZM296.291 434.246C295.346 434.246 294.498 433.924 293.746 433.28C293.016 432.614 292.447 431.701 292.039 430.541C291.631 429.36 291.427 427.996 291.427 426.45C291.427 424.646 291.706 423.068 292.264 421.715C292.823 420.34 293.596 419.266 294.584 418.493C295.572 417.72 296.688 417.333 297.934 417.333C298.235 417.333 298.535 417.365 298.836 417.43C299.137 417.473 299.427 417.559 299.706 417.688C300.049 417.859 300.221 417.784 300.221 417.462V413.339C300.221 412.952 300.157 412.684 300.028 412.533C299.921 412.383 299.717 412.297 299.416 412.275L298.578 412.179C298.342 412.136 298.224 412.007 298.224 411.792C298.224 411.577 298.342 411.449 298.578 411.406C299.266 411.277 299.813 411.126 300.221 410.955C300.651 410.783 301.005 410.611 301.284 410.439C301.628 410.224 301.886 410.117 302.058 410.117C302.294 410.117 302.412 410.289 302.412 410.632V430.896C302.412 431.798 302.637 432.249 303.088 432.249C303.368 432.249 303.625 432.066 303.862 431.701C304.098 431.315 304.216 430.67 304.216 429.768C304.216 429.425 304.356 429.253 304.635 429.253C304.892 429.253 305.021 429.435 305.021 429.801C305.021 431.368 304.753 432.507 304.216 433.215C303.679 433.903 303.067 434.246 302.38 434.246C301.757 434.246 301.284 434.042 300.962 433.634C300.64 433.205 300.425 432.7 300.318 432.12C300.296 431.948 300.221 431.862 300.092 431.862C299.964 431.841 299.845 431.916 299.738 432.088C299.137 432.925 298.589 433.495 298.095 433.795C297.601 434.096 297 434.246 296.291 434.246ZM297 432.764C297.558 432.764 298.074 432.582 298.546 432.217C299.04 431.83 299.437 431.315 299.738 430.67C300.06 430.026 300.221 429.307 300.221 428.512V421.264C300.221 420.297 299.996 419.535 299.545 418.976C299.115 418.418 298.546 418.139 297.837 418.139C296.635 418.139 295.657 418.847 294.906 420.265C294.176 421.661 293.81 423.572 293.81 425.999C293.81 428.211 294.09 429.897 294.648 431.057C295.228 432.195 296.012 432.764 297 432.764ZM316.037 434.246C315.758 434.246 315.565 434.031 315.458 433.602L311.56 419.685C311.409 419.17 311.259 418.837 311.109 418.686C310.98 418.536 310.765 418.429 310.464 418.364L309.981 418.267C309.702 418.203 309.562 418.063 309.562 417.849C309.562 417.634 309.713 417.527 310.013 417.527H315.232C315.533 417.527 315.683 417.634 315.683 417.849C315.683 418.085 315.543 418.225 315.264 418.267L314.749 418.332C314.233 418.396 313.911 418.525 313.782 418.719C313.654 418.89 313.654 419.212 313.782 419.685L316.327 429.06C316.392 429.274 316.488 429.382 316.617 429.382C316.768 429.382 316.875 429.274 316.939 429.06L319.13 420.716C319.173 420.544 319.195 420.372 319.195 420.2C319.216 420.029 319.195 419.846 319.13 419.653C318.98 419.137 318.829 418.815 318.679 418.686C318.55 418.536 318.335 418.429 318.035 418.364L317.552 418.267C317.272 418.203 317.133 418.063 317.133 417.849C317.133 417.634 317.283 417.527 317.584 417.527H322.803C323.103 417.527 323.254 417.634 323.254 417.849C323.254 418.085 323.114 418.225 322.835 418.267L322.319 418.332C321.804 418.396 321.493 418.525 321.385 418.719C321.278 418.89 321.267 419.212 321.353 419.685L323.415 428.995C323.458 429.21 323.544 429.317 323.672 429.317C323.823 429.317 323.93 429.21 323.995 428.995L326.443 420.265C326.615 419.685 326.658 419.255 326.572 418.976C326.507 418.676 326.207 418.482 325.67 418.396L324.993 418.267C324.714 418.203 324.574 418.063 324.574 417.849C324.574 417.634 324.725 417.527 325.025 417.527H329.052C329.353 417.527 329.503 417.645 329.503 417.881C329.503 418.096 329.375 418.246 329.117 418.332L328.827 418.429C328.505 418.536 328.226 418.729 327.989 419.008C327.753 419.288 327.538 419.771 327.345 420.458L323.672 433.602C323.565 434.031 323.361 434.246 323.06 434.246C322.803 434.246 322.62 434.031 322.513 433.602L320 423.293C319.935 423.057 319.828 422.939 319.678 422.939C319.549 422.917 319.452 423.035 319.388 423.293L316.617 433.602C316.51 434.031 316.317 434.246 316.037 434.246ZM329.531 433.956C329.274 433.956 329.145 433.838 329.145 433.602C329.145 433.387 329.263 433.258 329.499 433.215L329.95 433.151C330.401 433.086 330.691 432.958 330.82 432.764C330.97 432.571 331.045 432.249 331.045 431.798V413.339C331.045 412.952 330.981 412.694 330.852 412.565C330.745 412.415 330.541 412.318 330.24 412.275L329.564 412.179C329.327 412.136 329.209 412.007 329.209 411.792C329.209 411.577 329.327 411.449 329.564 411.406C330.165 411.277 330.67 411.126 331.078 410.955C331.486 410.783 331.829 410.611 332.109 410.439C332.452 410.224 332.71 410.117 332.882 410.117C333.118 410.117 333.236 410.289 333.236 410.632V419.17C333.236 419.363 333.301 419.481 333.429 419.524C333.558 419.545 333.719 419.47 333.913 419.298C334.729 418.547 335.448 418.031 336.071 417.752C336.694 417.473 337.349 417.333 338.036 417.333C339.046 417.333 339.84 417.677 340.42 418.364C341 419.03 341.29 420.018 341.29 421.328V431.798C341.29 432.249 341.354 432.571 341.483 432.764C341.634 432.936 341.934 433.054 342.385 433.119L343.094 433.215C343.33 433.258 343.448 433.387 343.448 433.602C343.448 433.838 343.319 433.956 343.062 433.956H337.65C337.349 433.956 337.199 433.838 337.199 433.602C337.199 433.387 337.317 433.258 337.553 433.215L338.004 433.151C338.455 433.086 338.745 432.958 338.874 432.764C339.024 432.571 339.099 432.249 339.099 431.798V421.682C339.099 420.63 338.906 419.889 338.519 419.459C338.133 419.03 337.585 418.815 336.876 418.815C336.189 418.815 335.566 419.019 335.008 419.427C334.471 419.814 334.041 420.34 333.719 421.006C333.397 421.65 333.236 422.37 333.236 423.164V431.798C333.236 432.249 333.301 432.571 333.429 432.764C333.58 432.958 333.88 433.076 334.331 433.119L335.201 433.215C335.437 433.258 335.556 433.387 335.556 433.602C335.556 433.838 335.427 433.956 335.169 433.956H329.531ZM347.338 434.246C346.436 434.246 345.695 433.967 345.115 433.409C344.535 432.829 344.245 432.066 344.245 431.121C344.245 430.198 344.535 429.328 345.115 428.512C345.695 427.674 346.489 426.923 347.499 426.257C348.508 425.591 349.657 425.054 350.946 424.646C351.225 424.56 351.364 424.378 351.364 424.098V421.167C351.364 420.136 351.203 419.406 350.881 418.976C350.559 418.525 350.119 418.3 349.56 418.3C349.023 418.3 348.529 418.547 348.078 419.041C347.649 419.513 347.338 420.319 347.144 421.457C347.037 422.144 346.801 422.649 346.436 422.971C346.092 423.272 345.738 423.422 345.372 423.422C344.771 423.422 344.47 423.121 344.47 422.52C344.47 421.897 344.642 421.285 344.986 420.684C345.351 420.061 345.823 419.502 346.403 419.008C346.983 418.493 347.617 418.085 348.304 417.784C348.991 417.484 349.679 417.333 350.366 417.333C352.492 417.333 353.555 418.568 353.555 421.038V430.896C353.555 431.798 353.781 432.249 354.232 432.249C354.511 432.249 354.769 432.066 355.005 431.701C355.241 431.315 355.359 430.67 355.359 429.768C355.359 429.425 355.499 429.253 355.778 429.253C356.036 429.253 356.165 429.435 356.165 429.801C356.165 431.368 355.885 432.507 355.327 433.215C354.79 433.903 354.178 434.246 353.491 434.246C352.975 434.246 352.567 434.042 352.266 433.634C351.966 433.205 351.762 432.7 351.654 432.12C351.633 431.905 351.536 431.798 351.364 431.798C351.214 431.776 351.064 431.873 350.913 432.088C350.398 432.797 349.872 433.333 349.335 433.699C348.798 434.064 348.132 434.246 347.338 434.246ZM348.207 432.764C348.766 432.764 349.281 432.571 349.754 432.184C350.226 431.776 350.613 431.239 350.913 430.574C351.214 429.908 351.364 429.156 351.364 428.319V425.967C351.364 425.559 351.139 425.441 350.688 425.613C349.378 426.085 348.358 426.74 347.627 427.578C346.919 428.394 346.564 429.382 346.564 430.541C346.564 432.023 347.112 432.764 348.207 432.764ZM360.564 434.246C359.812 434.246 359.189 433.989 358.695 433.473C358.223 432.936 357.986 432.066 357.986 430.864V418.815C357.986 418.557 357.858 418.429 357.6 418.429H356.666C356.322 418.429 356.15 418.3 356.15 418.042C356.15 417.87 356.247 417.72 356.44 417.591C357.149 417.097 357.718 416.571 358.147 416.012C358.577 415.433 358.953 414.649 359.275 413.661C359.425 413.21 359.608 412.984 359.823 412.984C360.059 412.984 360.177 413.156 360.177 413.5V417.076C360.177 417.376 360.327 417.527 360.628 417.527H362.722C363.066 417.527 363.237 417.677 363.237 417.978C363.237 418.278 363.066 418.429 362.722 418.429H360.628C360.327 418.429 360.177 418.579 360.177 418.88V430.896C360.177 431.368 360.252 431.744 360.403 432.023C360.553 432.281 360.832 432.41 361.24 432.41C361.691 432.41 362.056 432.184 362.335 431.733C362.636 431.282 362.829 430.552 362.915 429.543C362.958 429.242 363.098 429.092 363.334 429.092C363.592 429.092 363.721 429.253 363.721 429.575C363.656 431.229 363.313 432.421 362.69 433.151C362.088 433.881 361.38 434.246 360.564 434.246ZM371.669 440.56C371.089 440.56 370.627 440.356 370.283 439.948C369.94 439.562 369.768 439.111 369.768 438.595C369.768 438.187 369.886 437.844 370.122 437.564C370.358 437.285 370.681 437.146 371.089 437.146C371.432 437.146 371.679 437.221 371.83 437.371C371.98 437.521 372.087 437.693 372.152 437.887C372.216 438.08 372.281 438.252 372.345 438.402C372.41 438.552 372.538 438.628 372.732 438.628C372.968 438.628 373.183 438.456 373.376 438.112C373.569 437.79 373.838 437.092 374.181 436.018C374.396 435.374 374.525 434.815 374.568 434.343C374.632 433.87 374.622 433.366 374.536 432.829C374.471 432.292 374.31 431.637 374.052 430.864L370.541 419.685C370.391 419.17 370.24 418.837 370.09 418.686C369.961 418.536 369.746 418.429 369.446 418.364L368.962 418.267C368.683 418.203 368.544 418.063 368.544 417.849C368.544 417.634 368.694 417.527 368.995 417.527H374.31C374.611 417.527 374.761 417.634 374.761 417.849C374.761 418.085 374.622 418.225 374.342 418.267L373.827 418.332C373.312 418.396 372.979 418.525 372.828 418.719C372.699 418.89 372.71 419.212 372.861 419.685L375.695 429.124C375.76 429.339 375.857 429.446 375.985 429.446C376.136 429.446 376.243 429.339 376.308 429.124L379.046 420.265C379.218 419.685 379.261 419.255 379.175 418.976C379.11 418.676 378.81 418.482 378.273 418.396L377.596 418.267C377.317 418.203 377.177 418.063 377.177 417.849C377.177 417.634 377.328 417.527 377.628 417.527H381.72C382.02 417.527 382.171 417.645 382.171 417.881C382.171 418.096 382.042 418.246 381.784 418.332L381.494 418.429C381.172 418.536 380.904 418.729 380.689 419.008C380.474 419.288 380.249 419.771 380.012 420.458L375.212 435.438C374.74 436.942 374.31 438.058 373.924 438.789C373.559 439.519 373.204 439.991 372.861 440.206C372.517 440.442 372.12 440.56 371.669 440.56ZM387.639 434.246C386.544 434.246 385.556 433.881 384.675 433.151C383.816 432.399 383.129 431.379 382.613 430.09C382.098 428.802 381.84 427.363 381.84 425.774C381.84 424.184 382.098 422.756 382.613 421.489C383.129 420.222 383.827 419.212 384.707 418.461C385.588 417.709 386.565 417.333 387.639 417.333C388.734 417.333 389.712 417.709 390.571 418.461C391.451 419.212 392.149 420.222 392.665 421.489C393.18 422.756 393.438 424.184 393.438 425.774C393.438 427.363 393.18 428.802 392.665 430.09C392.171 431.379 391.483 432.399 390.603 433.151C389.722 433.881 388.734 434.246 387.639 434.246ZM387.639 433.441C389.873 433.441 390.989 430.885 390.989 425.774C390.989 420.684 389.873 418.139 387.639 418.139C385.405 418.139 384.289 420.684 384.289 425.774C384.289 430.885 385.405 433.441 387.639 433.441ZM399.436 434.246C398.899 434.246 398.384 434.128 397.89 433.892C397.396 433.656 396.988 433.28 396.666 432.764C396.344 432.249 396.183 431.562 396.183 430.703V419.492C396.183 419.105 396.118 418.837 395.989 418.686C395.882 418.536 395.678 418.45 395.377 418.429L394.83 418.364C394.464 418.321 394.282 418.182 394.282 417.945C394.282 417.666 394.486 417.527 394.894 417.527H397.89C398.212 417.527 398.373 417.688 398.373 418.01V430.026C398.373 431.014 398.556 431.723 398.921 432.152C399.307 432.56 399.834 432.764 400.499 432.764C401.165 432.764 401.756 432.582 402.271 432.217C402.787 431.83 403.195 431.325 403.495 430.703C403.818 430.058 403.979 429.36 403.979 428.609V419.492C403.979 419.105 403.914 418.837 403.785 418.686C403.678 418.536 403.474 418.45 403.173 418.429L402.626 418.364C402.261 418.321 402.078 418.182 402.078 417.945C402.078 417.666 402.282 417.527 402.69 417.527H405.686C406.008 417.527 406.169 417.688 406.169 418.01V430.509C406.169 430.896 406.223 431.164 406.33 431.315C406.459 431.444 406.674 431.529 406.975 431.572L407.651 431.669C407.93 431.69 408.07 431.798 408.07 431.991C408.07 432.184 407.898 432.313 407.555 432.378C406.889 432.464 406.352 432.635 405.944 432.893C405.557 433.151 405.214 433.462 404.913 433.827C404.72 434.021 404.559 434.117 404.43 434.117C404.236 434.117 404.14 433.989 404.14 433.731V432.249C404.14 432.077 404.075 431.98 403.946 431.959C403.839 431.916 403.721 431.959 403.592 432.088C402.797 432.882 402.089 433.441 401.466 433.763C400.865 434.085 400.188 434.246 399.436 434.246ZM414.353 433.956C414.031 433.956 413.869 433.838 413.869 433.602C413.869 433.409 414.009 433.28 414.288 433.215L414.675 433.151C415.126 433.065 415.416 432.936 415.545 432.764C415.695 432.571 415.77 432.249 415.77 431.798V420.974C415.77 420.587 415.706 420.329 415.577 420.2C415.469 420.05 415.265 419.953 414.965 419.91L414.288 419.814C414.009 419.792 413.869 419.674 413.869 419.459C413.869 419.288 414.041 419.17 414.385 419.105C415.051 418.998 415.555 418.826 415.899 418.59C416.264 418.353 416.64 418.063 417.027 417.72C417.22 417.527 417.381 417.43 417.51 417.43C417.703 417.43 417.8 417.559 417.8 417.816V419.266C417.8 419.459 417.864 419.588 417.993 419.653C418.143 419.696 418.304 419.631 418.476 419.459C419.335 418.643 420.087 418.085 420.731 417.784C421.397 417.484 422.095 417.333 422.825 417.333C423.792 417.333 424.565 417.677 425.145 418.364C425.725 419.03 426.015 420.018 426.015 421.328V431.798C426.015 432.249 426.079 432.571 426.208 432.764C426.358 432.936 426.659 433.054 427.11 433.119L427.819 433.215C428.055 433.258 428.173 433.387 428.173 433.602C428.173 433.838 428.044 433.956 427.786 433.956H422.374C422.074 433.956 421.923 433.838 421.923 433.602C421.923 433.387 422.041 433.258 422.278 433.215L422.729 433.151C423.18 433.086 423.47 432.958 423.598 432.764C423.749 432.571 423.824 432.249 423.824 431.798V421.682C423.824 420.63 423.631 419.889 423.244 419.459C422.858 419.03 422.31 418.815 421.601 418.815C420.914 418.815 420.291 419.019 419.733 419.427C419.196 419.814 418.766 420.34 418.444 421.006C418.122 421.65 417.961 422.37 417.961 423.164V431.798C417.961 432.249 418.025 432.571 418.154 432.764C418.304 432.958 418.605 433.076 419.056 433.119L419.926 433.215C420.162 433.258 420.28 433.376 420.28 433.57C420.28 433.827 420.119 433.956 419.797 433.956H414.353ZM434.382 434.246C433.351 434.246 432.427 433.903 431.611 433.215C430.795 432.528 430.14 431.562 429.646 430.316C429.174 429.049 428.937 427.588 428.937 425.935C428.937 424.238 429.184 422.745 429.678 421.457C430.172 420.168 430.849 419.159 431.708 418.429C432.567 417.698 433.523 417.333 434.575 417.333C435.842 417.333 436.862 417.859 437.635 418.912C438.43 419.943 438.827 421.629 438.827 423.97C438.827 424.678 438.559 425.033 438.022 425.033H431.901C431.472 425.033 431.257 425.28 431.257 425.774C431.257 428.05 431.59 429.758 432.256 430.896C432.921 432.034 433.77 432.603 434.801 432.603C435.617 432.603 436.282 432.313 436.798 431.733C437.313 431.154 437.732 430.176 438.054 428.802C438.119 428.566 438.258 428.447 438.473 428.447C438.731 428.447 438.827 428.662 438.763 429.092C438.419 431.003 437.872 432.346 437.12 433.119C436.368 433.87 435.456 434.246 434.382 434.246ZM431.805 424.227H435.058C436.089 424.227 436.605 423.69 436.605 422.617C436.605 421.221 436.433 420.125 436.089 419.331C435.746 418.536 435.23 418.139 434.543 418.139C433.705 418.139 432.997 418.622 432.417 419.588C431.858 420.555 431.493 421.929 431.321 423.712C431.278 424.055 431.439 424.227 431.805 424.227ZM445.511 434.246C444.48 434.246 443.557 433.903 442.741 433.215C441.924 432.528 441.269 431.562 440.775 430.316C440.303 429.049 440.067 427.588 440.067 425.935C440.067 424.238 440.314 422.745 440.808 421.457C441.302 420.168 441.978 419.159 442.837 418.429C443.696 417.698 444.652 417.333 445.704 417.333C446.972 417.333 447.992 417.859 448.765 418.912C449.559 419.943 449.957 421.629 449.957 423.97C449.957 424.678 449.688 425.033 449.151 425.033H443.031C442.601 425.033 442.386 425.28 442.386 425.774C442.386 428.05 442.719 429.758 443.385 430.896C444.051 432.034 444.899 432.603 445.93 432.603C446.746 432.603 447.412 432.313 447.927 431.733C448.443 431.154 448.861 430.176 449.184 428.802C449.248 428.566 449.388 428.447 449.602 428.447C449.86 428.447 449.957 428.662 449.892 429.092C449.549 431.003 449.001 432.346 448.249 433.119C447.498 433.87 446.585 434.246 445.511 434.246ZM442.934 424.227H446.188C447.219 424.227 447.734 423.69 447.734 422.617C447.734 421.221 447.562 420.125 447.218 419.331C446.875 418.536 446.359 418.139 445.672 418.139C444.835 418.139 444.126 418.622 443.546 419.588C442.988 420.555 442.622 421.929 442.451 423.712C442.408 424.055 442.569 424.227 442.934 424.227ZM456.286 434.246C455.341 434.246 454.493 433.924 453.741 433.28C453.011 432.614 452.442 431.701 452.034 430.541C451.626 429.36 451.422 427.996 451.422 426.45C451.422 424.646 451.701 423.068 452.259 421.715C452.818 420.34 453.591 419.266 454.579 418.493C455.567 417.72 456.683 417.333 457.929 417.333C458.23 417.333 458.53 417.365 458.831 417.43C459.132 417.473 459.422 417.559 459.701 417.688C460.045 417.859 460.216 417.784 460.216 417.462V413.339C460.216 412.952 460.152 412.684 460.023 412.533C459.916 412.383 459.712 412.297 459.411 412.275L458.573 412.179C458.337 412.136 458.219 412.007 458.219 411.792C458.219 411.577 458.337 411.449 458.573 411.406C459.261 411.277 459.808 411.126 460.216 410.955C460.646 410.783 461 410.611 461.279 410.439C461.623 410.224 461.881 410.117 462.053 410.117C462.289 410.117 462.407 410.289 462.407 410.632V430.896C462.407 431.798 462.632 432.249 463.083 432.249C463.363 432.249 463.62 432.066 463.857 431.701C464.093 431.315 464.211 430.67 464.211 429.768C464.211 429.425 464.351 429.253 464.63 429.253C464.888 429.253 465.016 429.435 465.016 429.801C465.016 431.368 464.748 432.507 464.211 433.215C463.674 433.903 463.062 434.246 462.375 434.246C461.752 434.246 461.279 434.042 460.957 433.634C460.635 433.205 460.42 432.7 460.313 432.12C460.291 431.948 460.216 431.862 460.087 431.862C459.959 431.841 459.84 431.916 459.733 432.088C459.132 432.925 458.584 433.495 458.09 433.795C457.596 434.096 456.995 434.246 456.286 434.246ZM456.995 432.764C457.553 432.764 458.069 432.582 458.541 432.217C459.035 431.83 459.432 431.315 459.733 430.67C460.055 430.026 460.216 429.307 460.216 428.512V421.264C460.216 420.297 459.991 419.535 459.54 418.976C459.11 418.418 458.541 418.139 457.832 418.139C456.63 418.139 455.653 418.847 454.901 420.265C454.171 421.661 453.806 423.572 453.806 425.999C453.806 428.211 454.085 429.897 454.643 431.057C455.223 432.195 456.007 432.764 456.995 432.764ZM467.305 438.982C467.068 439.218 466.864 439.261 466.693 439.111C466.499 438.96 466.532 438.756 466.789 438.499C467.412 437.876 467.852 437.296 468.11 436.759C468.368 436.222 468.497 435.664 468.497 435.084C468.497 434.74 468.411 434.472 468.239 434.278C468.067 434.107 467.874 433.946 467.659 433.795C467.444 433.645 467.251 433.473 467.079 433.28C466.907 433.065 466.821 432.764 466.821 432.378C466.821 431.948 466.961 431.594 467.24 431.315C467.541 431.014 467.917 430.864 468.368 430.864C468.905 430.864 469.323 431.057 469.624 431.444C469.946 431.83 470.107 432.356 470.107 433.022C470.107 434.16 469.839 435.256 469.302 436.308C468.787 437.382 468.121 438.273 467.305 438.982Z" fill="#F5F5F4"/>
<path d="M480.182 434.246C479.409 434.246 478.807 433.913 478.378 433.248C477.948 432.582 477.733 431.605 477.733 430.316C477.733 429.092 477.905 427.868 478.249 426.643C478.592 425.398 479.065 424.217 479.666 423.1C480.268 421.983 480.944 420.995 481.696 420.136C482.469 419.277 483.274 418.6 484.112 418.106C484.971 417.591 485.819 417.333 486.657 417.333C487.065 417.333 487.452 417.419 487.817 417.591C488.182 417.741 488.482 417.988 488.719 418.332C488.848 418.525 488.976 418.622 489.105 418.622C489.234 418.622 489.363 418.525 489.492 418.332C489.728 417.988 489.921 417.774 490.072 417.688C490.222 417.58 490.362 417.527 490.491 417.527C490.77 417.527 490.877 417.677 490.813 417.978L487.946 430.316C487.623 431.712 487.838 432.41 488.59 432.41C489.084 432.41 489.524 432.077 489.911 431.411C490.319 430.746 490.727 429.715 491.135 428.319C491.199 428.082 491.339 427.964 491.554 427.964C491.704 427.964 491.801 428.029 491.844 428.158C491.887 428.286 491.887 428.437 491.844 428.609C491.436 430.627 490.888 432.077 490.201 432.958C489.513 433.817 488.687 434.246 487.72 434.246C486.882 434.246 486.281 433.892 485.916 433.183C485.572 432.474 485.54 431.508 485.819 430.284L486.238 428.512C486.281 428.362 486.249 428.276 486.142 428.254C486.056 428.233 485.98 428.286 485.916 428.415C484.735 430.584 483.682 432.099 482.759 432.958C481.857 433.817 480.998 434.246 480.182 434.246ZM480.987 432.603C481.503 432.603 482.072 432.292 482.694 431.669C483.317 431.046 483.929 430.241 484.531 429.253C485.154 428.265 485.723 427.202 486.238 426.064C486.754 424.925 487.162 423.83 487.462 422.778C487.785 421.725 487.946 420.834 487.946 420.104C487.946 418.794 487.484 418.139 486.56 418.139C486.002 418.139 485.411 418.396 484.788 418.912C484.166 419.406 483.564 420.082 482.984 420.941C482.426 421.8 481.911 422.778 481.438 423.873C480.987 424.947 480.622 426.074 480.343 427.256C480.064 428.415 479.924 429.554 479.924 430.67C479.924 431.422 480.01 431.937 480.182 432.217C480.375 432.474 480.643 432.603 480.987 432.603ZM493.958 433.538L497.018 420.684C497.126 420.211 497.137 419.846 497.051 419.588C496.986 419.309 496.793 419.17 496.471 419.17C496.084 419.17 495.655 419.459 495.182 420.039C494.731 420.598 494.216 421.672 493.636 423.261C493.55 423.54 493.4 423.68 493.185 423.68C492.863 423.68 492.777 423.486 492.927 423.1C493.4 421.618 493.894 420.458 494.409 419.621C494.946 418.783 495.483 418.192 496.02 417.849C496.557 417.505 497.051 417.333 497.502 417.333C498.21 417.333 498.715 417.602 499.016 418.139C499.316 418.654 499.327 419.513 499.048 420.716L498.243 424.195C498.221 424.345 498.253 424.431 498.339 424.453C498.425 424.474 498.5 424.421 498.565 424.292C499.402 422.552 500.208 421.178 500.981 420.168C501.754 419.137 502.484 418.407 503.172 417.978C503.859 417.548 504.482 417.333 505.04 417.333C505.835 417.333 506.415 417.655 506.78 418.3C507.145 418.944 507.145 419.932 506.78 421.264L504.331 430.606C504.181 431.207 504.17 431.658 504.299 431.959C504.428 432.26 504.664 432.41 505.008 432.41C505.437 432.41 505.856 432.131 506.264 431.572C506.694 430.993 507.134 429.908 507.585 428.319C507.649 428.082 507.789 427.964 508.004 427.964C508.176 427.964 508.272 428.029 508.294 428.158C508.337 428.286 508.337 428.437 508.294 428.609C507.886 430.069 507.445 431.218 506.973 432.056C506.5 432.872 506.017 433.441 505.523 433.763C505.051 434.085 504.568 434.246 504.074 434.246C503.3 434.246 502.721 433.924 502.334 433.28C501.947 432.635 501.926 431.637 502.27 430.284L504.75 420.941C504.986 420.104 505.019 419.524 504.847 419.202C504.696 418.88 504.471 418.719 504.17 418.719C503.698 418.719 503.161 419.019 502.559 419.621C501.958 420.2 501.346 421.006 500.723 422.037C500.1 423.046 499.488 424.195 498.887 425.484C498.286 426.772 497.738 428.115 497.244 429.511C496.771 430.907 496.385 432.27 496.084 433.602C496.02 433.838 495.869 433.956 495.633 433.956H494.312C494.012 433.956 493.894 433.817 493.958 433.538ZM507.858 440.883C507.042 440.883 506.409 440.668 505.958 440.238C505.507 439.83 505.281 439.325 505.281 438.724C505.281 438.273 505.399 437.93 505.635 437.693C505.872 437.478 506.129 437.371 506.409 437.371C506.817 437.371 507.107 437.478 507.278 437.693C507.45 437.908 507.579 438.155 507.665 438.434C507.751 438.735 507.891 438.993 508.084 439.207C508.256 439.422 508.546 439.53 508.954 439.53C509.748 439.53 510.532 439.207 511.305 438.563C512.079 437.94 512.712 437.07 513.206 435.954C513.7 434.858 513.915 433.623 513.85 432.249L513.367 420.684C513.346 420.125 513.249 419.739 513.077 419.524C512.905 419.288 512.691 419.17 512.433 419.17C511.96 419.17 511.509 419.459 511.08 420.039C510.65 420.598 510.296 421.672 510.017 423.261C509.952 423.54 509.813 423.68 509.598 423.68C509.297 423.68 509.179 423.486 509.244 423.1C509.501 421.618 509.856 420.458 510.307 419.621C510.779 418.783 511.273 418.192 511.789 417.849C512.326 417.505 512.819 417.333 513.27 417.333C513.936 417.333 514.462 417.569 514.849 418.042C515.236 418.493 515.45 419.277 515.493 420.394L515.944 432.764C515.944 432.915 515.987 433.011 516.073 433.054C516.181 433.076 516.277 433.022 516.363 432.893C517.115 431.841 517.791 430.756 518.393 429.639C519.016 428.501 519.51 427.384 519.875 426.289C520.24 425.194 520.422 424.184 520.422 423.261C520.422 422.359 520.326 421.65 520.132 421.135C519.939 420.598 519.735 420.147 519.52 419.782C519.327 419.417 519.23 419.019 519.23 418.59C519.23 417.752 519.595 417.333 520.326 417.333C521.357 417.333 521.872 418.472 521.872 420.748C521.872 421.994 521.657 423.357 521.228 424.839C520.798 426.3 520.208 427.792 519.456 429.317C518.726 430.821 517.877 432.26 516.911 433.634C515.966 435.009 514.967 436.244 513.915 437.339C512.884 438.434 511.842 439.293 510.79 439.916C509.759 440.56 508.782 440.883 507.858 440.883ZM525.157 434.246C524.427 434.246 523.858 433.956 523.45 433.376C523.041 432.797 522.977 431.862 523.256 430.574L525.93 418.912C525.995 418.59 525.866 418.429 525.544 418.429H524.319C524.019 418.429 523.868 418.289 523.868 418.01C523.868 417.859 523.922 417.741 524.029 417.655C524.137 417.569 524.266 417.527 524.416 417.527H525.576C526.07 417.527 526.36 417.301 526.446 416.85L527.219 413.403C527.283 413.167 527.433 413.049 527.67 413.049H528.991C529.291 413.049 529.409 413.188 529.345 413.467L528.54 417.043C528.475 417.365 528.604 417.527 528.926 417.527H530.762C531.127 417.527 531.31 417.666 531.31 417.945C531.31 418.267 531.085 418.429 530.634 418.429H528.894C528.421 418.429 528.131 418.654 528.024 419.105L525.318 430.896C525.211 431.368 525.221 431.744 525.35 432.023C525.501 432.281 525.748 432.41 526.091 432.41C526.585 432.41 527.036 432.131 527.444 431.572C527.874 431.014 528.325 429.951 528.797 428.383C528.883 428.104 529.023 427.964 529.216 427.964C529.366 427.964 529.463 428.029 529.506 428.158C529.549 428.286 529.517 428.523 529.409 428.866C529.001 430.327 528.55 431.444 528.056 432.217C527.584 432.99 527.101 433.527 526.607 433.827C526.113 434.107 525.629 434.246 525.157 434.246ZM540.699 434.246C539.926 434.246 539.346 433.924 538.96 433.28C538.573 432.635 538.552 431.637 538.895 430.284L541.376 420.941C541.612 420.104 541.644 419.524 541.473 419.202C541.322 418.88 541.097 418.719 540.796 418.719C540.324 418.719 539.787 419.019 539.185 419.621C538.605 420.2 537.993 421.006 537.349 422.037C536.726 423.046 536.114 424.195 535.513 425.484C534.933 426.751 534.396 428.093 533.902 429.511C533.408 430.907 533.011 432.27 532.71 433.602C532.646 433.838 532.495 433.956 532.259 433.956H530.906C530.605 433.956 530.487 433.817 530.552 433.538L535.255 413.339C535.362 412.952 535.362 412.684 535.255 412.533C535.169 412.383 534.976 412.297 534.675 412.275L533.709 412.179C533.387 412.157 533.247 412.018 533.29 411.76C533.333 411.567 533.483 411.449 533.741 411.406C534.514 411.277 535.201 411.126 535.803 410.955C536.404 410.761 536.887 410.514 537.252 410.214C537.424 410.085 537.585 410.02 537.736 410.02C537.993 410.02 538.09 410.181 538.026 410.504L534.869 424.195C534.847 424.345 534.879 424.431 534.965 424.453C535.051 424.474 535.126 424.421 535.191 424.292C536.05 422.531 536.866 421.145 537.639 420.136C538.412 419.127 539.132 418.407 539.797 417.978C540.485 417.548 541.108 417.333 541.666 417.333C542.461 417.333 543.04 417.655 543.406 418.3C543.771 418.944 543.771 419.932 543.406 421.264L540.957 430.606C540.807 431.207 540.796 431.658 540.925 431.959C541.054 432.26 541.29 432.41 541.634 432.41C542.063 432.41 542.482 432.131 542.89 431.572C543.298 430.993 543.738 429.908 544.211 428.319C544.275 428.082 544.415 427.964 544.63 427.964C544.802 427.964 544.898 428.029 544.92 428.158C544.963 428.286 544.963 428.437 544.92 428.609C544.512 430.069 544.071 431.218 543.599 432.056C543.126 432.872 542.643 433.441 542.149 433.763C541.677 434.085 541.193 434.246 540.699 434.246ZM551.897 414.466C551.489 414.466 551.145 414.327 550.866 414.047C550.608 413.747 550.48 413.392 550.48 412.984C550.48 412.404 550.651 411.943 550.995 411.599C551.36 411.255 551.768 411.084 552.219 411.084C552.649 411.084 553.003 411.223 553.282 411.502C553.583 411.76 553.733 412.104 553.733 412.533C553.733 413.135 553.551 413.607 553.186 413.951C552.821 414.294 552.391 414.466 551.897 414.466ZM549.255 434.278C548.547 434.278 548.042 434.021 547.741 433.505C547.441 432.968 547.43 432.099 547.709 430.896L550.093 420.684C550.2 420.211 550.211 419.846 550.125 419.588C550.061 419.309 549.867 419.17 549.545 419.17C549.159 419.17 548.729 419.459 548.257 420.039C547.806 420.598 547.29 421.672 546.71 423.261C546.624 423.54 546.474 423.68 546.259 423.68C545.937 423.68 545.851 423.486 546.002 423.1C546.474 421.618 546.968 420.458 547.484 419.621C548.02 418.783 548.557 418.192 549.094 417.849C549.631 417.505 550.125 417.333 550.576 417.333C551.328 417.333 551.854 417.602 552.155 418.139C552.455 418.654 552.466 419.513 552.187 420.716L549.803 430.928C549.696 431.401 549.674 431.776 549.739 432.056C549.825 432.313 550.029 432.442 550.351 432.442C550.737 432.442 551.156 432.163 551.607 431.605C552.08 431.025 552.606 429.94 553.186 428.351C553.272 428.072 553.422 427.932 553.637 427.932C553.959 427.932 554.045 428.125 553.894 428.512C553.443 429.972 552.939 431.132 552.38 431.991C551.843 432.829 551.306 433.419 550.77 433.763C550.233 434.107 549.728 434.278 549.255 434.278ZM555.991 433.538L559.052 420.684C559.159 420.211 559.17 419.846 559.084 419.588C559.019 419.309 558.826 419.17 558.504 419.17C558.117 419.17 557.688 419.459 557.215 420.039C556.764 420.598 556.249 421.672 555.669 423.261C555.583 423.54 555.433 423.68 555.218 423.68C554.896 423.68 554.81 423.486 554.96 423.1C555.433 421.618 555.927 420.458 556.442 419.621C556.979 418.783 557.516 418.192 558.053 417.849C558.59 417.505 559.084 417.333 559.535 417.333C560.244 417.333 560.748 417.602 561.049 418.139C561.35 418.654 561.36 419.513 561.081 420.716L560.276 424.195C560.254 424.345 560.286 424.431 560.372 424.453C560.458 424.474 560.533 424.421 560.598 424.292C561.435 422.552 562.241 421.178 563.014 420.168C563.787 419.137 564.517 418.407 565.205 417.978C565.892 417.548 566.515 417.333 567.073 417.333C567.868 417.333 568.448 417.655 568.813 418.3C569.178 418.944 569.178 419.932 568.813 421.264L566.364 430.606C566.214 431.207 566.203 431.658 566.332 431.959C566.461 432.26 566.697 432.41 567.041 432.41C567.47 432.41 567.889 432.131 568.297 431.572C568.727 430.993 569.167 429.908 569.618 428.319C569.683 428.082 569.822 427.964 570.037 427.964C570.209 427.964 570.305 428.029 570.327 428.158C570.37 428.286 570.37 428.437 570.327 428.609C569.919 430.069 569.479 431.218 569.006 432.056C568.534 432.872 568.05 433.441 567.556 433.763C567.084 434.085 566.601 434.246 566.107 434.246C565.334 434.246 564.754 433.924 564.367 433.28C563.98 432.635 563.959 431.637 564.303 430.284L566.783 420.941C567.019 420.104 567.052 419.524 566.88 419.202C566.729 418.88 566.504 418.719 566.203 418.719C565.731 418.719 565.194 419.019 564.593 419.621C563.991 420.2 563.379 421.006 562.756 422.037C562.133 423.046 561.521 424.195 560.92 425.484C560.319 426.772 559.771 428.115 559.277 429.511C558.805 430.907 558.418 432.27 558.117 433.602C558.053 433.838 557.903 433.956 557.666 433.956H556.345C556.045 433.956 555.927 433.817 555.991 433.538ZM573.317 440.915C571.62 440.915 570.332 440.603 569.451 439.981C568.571 439.358 568.13 438.617 568.13 437.758C568.13 437.006 568.431 436.265 569.032 435.535C569.612 434.826 570.697 434.01 572.286 433.086C572.522 432.958 572.651 432.818 572.673 432.668C572.716 432.496 572.619 432.335 572.383 432.184C571.781 431.798 571.416 431.347 571.287 430.831C571.18 430.316 571.32 429.951 571.706 429.736L574.154 428.319C574.369 428.211 574.477 428.082 574.477 427.932C574.498 427.76 574.391 427.61 574.154 427.481C573.575 427.137 573.134 426.654 572.834 426.031C572.554 425.387 572.415 424.689 572.415 423.937C572.415 422.778 572.694 421.704 573.252 420.716C573.832 419.706 574.595 418.89 575.54 418.267C576.506 417.645 577.58 417.333 578.761 417.333C579.255 417.333 579.674 417.398 580.018 417.527C580.275 417.612 580.469 417.527 580.598 417.269C580.963 416.474 581.424 415.851 581.983 415.4C582.563 414.928 583.164 414.692 583.787 414.692C584.238 414.692 584.581 414.81 584.818 415.046C585.075 415.282 585.204 415.604 585.204 416.012C585.204 416.42 585.086 416.753 584.85 417.011C584.614 417.269 584.313 417.398 583.948 417.398C583.669 417.398 583.454 417.344 583.304 417.237C583.175 417.129 583.057 417.022 582.949 416.914C582.842 416.807 582.67 416.753 582.434 416.753C581.961 416.753 581.585 417.022 581.306 417.559C581.22 417.752 581.199 417.935 581.242 418.106C581.285 418.257 581.371 418.418 581.5 418.59C582.058 419.32 582.337 420.243 582.337 421.36C582.337 422.37 582.112 423.336 581.661 424.26C581.231 425.162 580.63 425.935 579.857 426.579C579.105 427.202 578.235 427.621 577.247 427.835C576.861 427.921 576.506 428.029 576.184 428.158C575.883 428.265 575.497 428.469 575.024 428.77L573.736 429.543C573.414 429.736 573.328 429.983 573.478 430.284C573.628 430.563 574.047 430.831 574.734 431.089L577.505 432.12C578.708 432.55 579.534 433.076 579.985 433.699C580.458 434.321 580.694 435.052 580.694 435.889C580.694 436.92 580.351 437.811 579.663 438.563C578.997 439.315 578.106 439.895 576.989 440.303C575.873 440.711 574.648 440.915 573.317 440.915ZM574.573 424.517C574.573 425.505 574.713 426.225 574.992 426.676C575.293 427.105 575.712 427.32 576.248 427.32C576.936 427.32 577.569 427.009 578.149 426.386C578.751 425.741 579.234 424.925 579.599 423.937C579.964 422.928 580.146 421.886 580.146 420.812C580.146 419.739 580.007 419.008 579.728 418.622C579.449 418.214 579.03 418.01 578.471 418.01C577.806 418.01 577.172 418.332 576.571 418.976C575.969 419.599 575.486 420.404 575.121 421.392C574.756 422.38 574.573 423.422 574.573 424.517ZM573.671 440.109C574.509 440.109 575.293 439.97 576.023 439.691C576.753 439.411 577.344 439.014 577.795 438.499C578.267 437.983 578.504 437.371 578.504 436.662C578.504 435.954 578.321 435.363 577.956 434.891C577.612 434.44 576.925 434.021 575.894 433.634L575.282 433.409C574.895 433.258 574.509 433.205 574.122 433.248C573.736 433.291 573.371 433.398 573.027 433.57C571.867 434.214 571.083 434.815 570.675 435.374C570.267 435.932 570.063 436.544 570.063 437.21C570.063 438.005 570.353 438.681 570.933 439.24C571.513 439.819 572.426 440.109 573.671 440.109ZM589.112 433.956C588.832 433.956 588.725 433.817 588.789 433.538L592.043 419.621C592.237 418.826 591.979 418.429 591.27 418.429H590.594C590.25 418.429 590.078 418.278 590.078 417.978C590.078 417.677 590.271 417.527 590.658 417.527C591.324 417.527 591.818 417.441 592.14 417.269C592.483 417.097 592.709 416.753 592.816 416.238C593.096 415.014 593.504 413.929 594.041 412.984C594.599 412.018 595.265 411.255 596.038 410.697C596.811 410.139 597.659 409.859 598.583 409.859C599.335 409.859 599.936 410.042 600.387 410.407C600.859 410.751 601.096 411.234 601.096 411.857C601.096 412.329 600.967 412.716 600.709 413.016C600.473 413.296 600.172 413.435 599.807 413.435C599.356 413.435 599.055 413.306 598.905 413.049C598.776 412.791 598.69 412.49 598.647 412.147C598.626 411.803 598.561 411.502 598.454 411.245C598.347 410.987 598.1 410.858 597.713 410.858C597.219 410.858 596.779 411.105 596.392 411.599C596.027 412.071 595.694 412.973 595.394 414.305L594.749 417.108C594.685 417.387 594.803 417.527 595.104 417.527H597.681C598.089 417.527 598.25 417.677 598.164 417.978C598.1 418.278 597.906 418.429 597.584 418.429H594.782C594.567 418.429 594.427 418.536 594.363 418.751L590.916 433.602C590.851 433.838 590.701 433.956 590.465 433.956H589.112ZM598.252 433.956C597.951 433.956 597.833 433.817 597.897 433.538L600.958 420.684C601.065 420.211 601.076 419.846 600.99 419.588C600.926 419.309 600.732 419.17 600.41 419.17C600.023 419.17 599.594 419.459 599.121 420.039C598.67 420.598 598.155 421.672 597.575 423.261C597.489 423.54 597.339 423.68 597.124 423.68C596.802 423.68 596.716 423.486 596.866 423.1C597.339 421.618 597.833 420.458 598.348 419.621C598.885 418.783 599.422 418.192 599.959 417.849C600.496 417.505 600.99 417.333 601.441 417.333C602.15 417.333 602.654 417.602 602.955 418.139C603.256 418.654 603.266 419.513 602.987 420.716L602.633 422.23C602.611 422.38 602.644 422.466 602.73 422.488C602.815 422.509 602.891 422.455 602.955 422.327C603.771 420.458 604.512 419.159 605.178 418.429C605.844 417.698 606.606 417.333 607.465 417.333C608.045 417.333 608.475 417.494 608.754 417.816C609.054 418.117 609.205 418.536 609.205 419.073C609.205 419.61 609.076 420.039 608.818 420.361C608.561 420.684 608.228 420.845 607.82 420.845C607.476 420.845 607.229 420.759 607.079 420.587C606.928 420.415 606.81 420.222 606.724 420.007C606.66 419.771 606.585 419.567 606.499 419.395C606.413 419.223 606.273 419.137 606.08 419.137C605.758 419.137 605.339 419.545 604.824 420.361C604.308 421.178 603.75 422.284 603.148 423.68C602.568 425.054 601.999 426.6 601.441 428.319C600.904 430.037 600.432 431.798 600.023 433.602C599.959 433.838 599.809 433.956 599.572 433.956H598.252ZM612.123 434.246C610.792 434.246 609.739 433.699 608.966 432.603C608.193 431.486 607.806 429.983 607.806 428.093C607.806 426.697 608.032 425.355 608.483 424.066C608.934 422.778 609.524 421.629 610.255 420.619C611.006 419.61 611.833 418.815 612.735 418.235C613.659 417.634 614.582 417.333 615.506 417.333C616.837 417.333 617.89 417.881 618.663 418.976C619.436 420.072 619.823 421.575 619.823 423.486C619.823 424.882 619.597 426.225 619.146 427.513C618.695 428.802 618.094 429.951 617.342 430.96C616.612 431.97 615.785 432.775 614.861 433.376C613.959 433.956 613.047 434.246 612.123 434.246ZM612.059 433.473C612.746 433.473 613.412 433.14 614.056 432.474C614.722 431.809 615.323 430.928 615.86 429.833C616.397 428.737 616.826 427.524 617.149 426.192C617.471 424.839 617.632 423.486 617.632 422.133C617.632 419.449 616.934 418.106 615.538 418.106C614.872 418.106 614.206 418.439 613.541 419.105C612.875 419.749 612.273 420.619 611.736 421.715C611.221 422.81 610.802 424.034 610.48 425.387C610.158 426.719 609.997 428.061 609.997 429.414C609.997 432.12 610.684 433.473 612.059 433.473ZM639.218 434.246C638.445 434.246 637.865 433.924 637.478 433.28C637.092 432.635 637.07 431.637 637.414 430.284L639.895 420.941C640.131 420.104 640.163 419.524 639.991 419.202C639.841 418.88 639.615 418.719 639.315 418.719C638.885 418.719 638.391 419.019 637.833 419.621C637.274 420.2 636.684 420.995 636.061 422.004C635.46 423.014 634.869 424.163 634.289 425.451C633.709 426.74 633.172 428.082 632.678 429.478C632.184 430.874 631.776 432.249 631.454 433.602C631.39 433.838 631.239 433.956 631.003 433.956H629.747C629.446 433.956 629.328 433.817 629.392 433.538L632.356 420.941C632.55 420.104 632.571 419.524 632.421 419.202C632.292 418.88 632.077 418.719 631.776 418.719C631.368 418.719 630.885 419.019 630.327 419.621C629.768 420.2 629.188 420.995 628.587 422.004C627.986 423.014 627.395 424.163 626.815 425.451C626.235 426.74 625.698 428.082 625.204 429.478C624.71 430.874 624.313 432.249 624.013 433.602C623.948 433.838 623.798 433.956 623.561 433.956H622.241C621.94 433.956 621.822 433.817 621.886 433.538L624.947 420.684C625.054 420.211 625.065 419.846 624.979 419.588C624.915 419.309 624.721 419.17 624.399 419.17C624.013 419.17 623.583 419.459 623.11 420.039C622.659 420.598 622.144 421.672 621.564 423.261C621.478 423.54 621.328 423.68 621.113 423.68C620.791 423.68 620.705 423.486 620.855 423.1C621.328 421.618 621.822 420.458 622.337 419.621C622.874 418.783 623.411 418.192 623.948 417.849C624.485 417.505 624.979 417.333 625.43 417.333C626.139 417.333 626.643 417.602 626.944 418.139C627.245 418.654 627.256 419.513 626.976 420.716L626.171 424.195C626.149 424.345 626.182 424.431 626.268 424.453C626.353 424.474 626.429 424.421 626.493 424.292C627.739 421.715 628.866 419.91 629.876 418.88C630.885 417.849 631.809 417.333 632.646 417.333C633.441 417.333 633.999 417.655 634.321 418.3C634.665 418.944 634.686 419.932 634.386 421.264L633.709 424.195C633.688 424.345 633.72 424.431 633.806 424.453C633.892 424.474 633.967 424.421 634.031 424.292C634.848 422.552 635.61 421.178 636.319 420.168C637.049 419.137 637.736 418.407 638.38 417.978C639.025 417.548 639.626 417.333 640.185 417.333C640.979 417.333 641.559 417.655 641.924 418.3C642.289 418.944 642.289 419.932 641.924 421.264L639.476 430.606C639.325 431.207 639.315 431.658 639.444 431.959C639.572 432.26 639.809 432.41 640.152 432.41C640.582 432.41 641.001 432.131 641.409 431.572C641.838 430.993 642.279 429.908 642.73 428.319C642.794 428.082 642.934 427.964 643.148 427.964C643.32 427.964 643.417 428.029 643.438 428.158C643.481 428.286 643.481 428.437 643.438 428.609C643.03 430.069 642.59 431.218 642.117 432.056C641.645 432.872 641.162 433.441 640.668 433.763C640.195 434.085 639.712 434.246 639.218 434.246ZM651.88 434.246C651.107 434.246 650.505 433.913 650.076 433.248C649.646 432.582 649.432 431.605 649.432 430.316C649.432 429.092 649.603 427.868 649.947 426.643C650.291 425.398 650.763 424.217 651.364 423.1C651.966 421.983 652.642 420.995 653.394 420.136C654.167 419.277 654.973 418.6 655.81 418.106C656.669 417.591 657.518 417.333 658.355 417.333C658.763 417.333 659.15 417.419 659.515 417.591C659.88 417.741 660.181 417.988 660.417 418.332C660.546 418.525 660.675 418.622 660.804 418.622C660.932 418.622 661.061 418.525 661.19 418.332C661.426 417.988 661.62 417.774 661.77 417.688C661.92 417.58 662.06 417.527 662.189 417.527C662.468 417.527 662.575 417.677 662.511 417.978L659.644 430.316C659.322 431.712 659.536 432.41 660.288 432.41C660.782 432.41 661.222 432.077 661.609 431.411C662.017 430.746 662.425 429.715 662.833 428.319C662.898 428.082 663.037 427.964 663.252 427.964C663.402 427.964 663.499 428.029 663.542 428.158C663.585 428.286 663.585 428.437 663.542 428.609C663.134 430.627 662.586 432.077 661.899 432.958C661.212 433.817 660.385 434.246 659.418 434.246C658.581 434.246 657.979 433.892 657.614 433.183C657.271 432.474 657.238 431.508 657.518 430.284L657.936 428.512C657.979 428.362 657.947 428.276 657.84 428.254C657.754 428.233 657.679 428.286 657.614 428.415C656.433 430.584 655.381 432.099 654.457 432.958C653.555 433.817 652.696 434.246 651.88 434.246ZM652.685 432.603C653.201 432.603 653.77 432.292 654.393 431.669C655.016 431.046 655.628 430.241 656.229 429.253C656.852 428.265 657.421 427.202 657.936 426.064C658.452 424.925 658.86 423.83 659.161 422.778C659.483 421.725 659.644 420.834 659.644 420.104C659.644 418.794 659.182 418.139 658.259 418.139C657.7 418.139 657.11 418.396 656.487 418.912C655.864 419.406 655.263 420.082 654.683 420.941C654.124 421.8 653.609 422.778 653.136 423.873C652.685 424.947 652.32 426.074 652.041 427.256C651.762 428.415 651.622 429.554 651.622 430.67C651.622 431.422 651.708 431.937 651.88 432.217C652.073 432.474 652.342 432.603 652.685 432.603ZM665.656 433.538L668.717 420.684C668.824 420.211 668.835 419.846 668.749 419.588C668.684 419.309 668.491 419.17 668.169 419.17C667.782 419.17 667.353 419.459 666.88 420.039C666.429 420.598 665.914 421.672 665.334 423.261C665.248 423.54 665.098 423.68 664.883 423.68C664.561 423.68 664.475 423.486 664.625 423.1C665.098 421.618 665.592 420.458 666.107 419.621C666.644 418.783 667.181 418.192 667.718 417.849C668.255 417.505 668.749 417.333 669.2 417.333C669.909 417.333 670.413 417.602 670.714 418.139C671.015 418.654 671.025 419.513 670.746 420.716L669.941 424.195C669.919 424.345 669.952 424.431 670.037 424.453C670.123 424.474 670.199 424.421 670.263 424.292C671.101 422.552 671.906 421.178 672.679 420.168C673.452 419.137 674.182 418.407 674.87 417.978C675.557 417.548 676.18 417.333 676.738 417.333C677.533 417.333 678.113 417.655 678.478 418.3C678.843 418.944 678.843 419.932 678.478 421.264L676.029 430.606C675.879 431.207 675.868 431.658 675.997 431.959C676.126 432.26 676.362 432.41 676.706 432.41C677.136 432.41 677.554 432.131 677.962 431.572C678.392 430.993 678.832 429.908 679.283 428.319C679.348 428.082 679.487 427.964 679.702 427.964C679.874 427.964 679.97 428.029 679.992 428.158C680.035 428.286 680.035 428.437 679.992 428.609C679.584 430.069 679.144 431.218 678.671 432.056C678.199 432.872 677.715 433.441 677.221 433.763C676.749 434.085 676.266 434.246 675.772 434.246C674.999 434.246 674.419 433.924 674.032 433.28C673.646 432.635 673.624 431.637 673.968 430.284L676.448 420.941C676.685 420.104 676.717 419.524 676.545 419.202C676.395 418.88 676.169 418.719 675.868 418.719C675.396 418.719 674.859 419.019 674.258 419.621C673.656 420.2 673.044 421.006 672.421 422.037C671.799 423.046 671.186 424.195 670.585 425.484C669.984 426.772 669.436 428.115 668.942 429.511C668.47 430.907 668.083 432.27 667.782 433.602C667.718 433.838 667.568 433.956 667.331 433.956H666.011C665.71 433.956 665.592 433.817 665.656 433.538ZM679.557 440.883C678.74 440.883 678.107 440.668 677.656 440.238C677.205 439.83 676.979 439.325 676.979 438.724C676.979 438.273 677.097 437.93 677.334 437.693C677.57 437.478 677.828 437.371 678.107 437.371C678.515 437.371 678.805 437.478 678.977 437.693C679.149 437.908 679.277 438.155 679.363 438.434C679.449 438.735 679.589 438.993 679.782 439.207C679.954 439.422 680.244 439.53 680.652 439.53C681.447 439.53 682.23 439.207 683.004 438.563C683.777 437.94 684.41 437.07 684.904 435.954C685.398 434.858 685.613 433.623 685.549 432.249L685.065 420.684C685.044 420.125 684.947 419.739 684.775 419.524C684.604 419.288 684.389 419.17 684.131 419.17C683.659 419.17 683.208 419.459 682.778 420.039C682.349 420.598 681.994 421.672 681.715 423.261C681.651 423.54 681.511 423.68 681.296 423.68C680.996 423.68 680.877 423.486 680.942 423.1C681.2 421.618 681.554 420.458 682.005 419.621C682.477 418.783 682.971 418.192 683.487 417.849C684.024 417.505 684.518 417.333 684.969 417.333C685.635 417.333 686.161 417.569 686.547 418.042C686.934 418.493 687.149 419.277 687.192 420.394L687.643 432.764C687.643 432.915 687.686 433.011 687.771 433.054C687.879 433.076 687.975 433.022 688.061 432.893C688.813 431.841 689.49 430.756 690.091 429.639C690.714 428.501 691.208 427.384 691.573 426.289C691.938 425.194 692.121 424.184 692.121 423.261C692.121 422.359 692.024 421.65 691.831 421.135C691.637 420.598 691.433 420.147 691.218 419.782C691.025 419.417 690.929 419.019 690.929 418.59C690.929 417.752 691.294 417.333 692.024 417.333C693.055 417.333 693.57 418.472 693.57 420.748C693.57 421.994 693.355 423.357 692.926 424.839C692.496 426.3 691.906 427.792 691.154 429.317C690.424 430.821 689.576 432.26 688.609 433.634C687.664 435.009 686.665 436.244 685.613 437.339C684.582 438.434 683.541 439.293 682.488 439.916C681.457 440.56 680.48 440.883 679.557 440.883ZM697.983 434.246C697.102 434.246 696.426 433.903 695.953 433.215C695.481 432.528 695.395 431.594 695.695 430.413L698.273 420.684C698.552 419.674 698.38 419.17 697.757 419.17C697.306 419.17 696.855 419.492 696.404 420.136C695.975 420.78 695.502 421.833 694.987 423.293C694.901 423.551 694.75 423.68 694.536 423.68C694.428 423.68 694.342 423.637 694.278 423.551C694.213 423.443 694.203 423.315 694.246 423.164C695.491 419.277 697.048 417.333 698.917 417.333C699.647 417.333 700.141 417.634 700.399 418.235C700.656 418.837 700.646 419.663 700.367 420.716L697.66 430.992C697.467 431.723 697.456 432.26 697.628 432.603C697.8 432.947 698.058 433.119 698.401 433.119C699.454 433.119 700.624 431.83 701.913 429.253C703.223 426.654 704.372 422.864 705.36 417.881C705.424 417.645 705.575 417.527 705.811 417.527H707.067C707.368 417.527 707.486 417.666 707.422 417.945L704.844 430.992C704.694 431.701 704.705 432.238 704.877 432.603C705.07 432.947 705.371 433.119 705.779 433.119C706.402 433.119 707.035 432.818 707.679 432.217C708.324 431.615 708.904 430.831 709.419 429.865C709.956 428.899 710.385 427.835 710.708 426.676C711.03 425.516 711.191 424.378 711.191 423.261C711.191 422.359 711.116 421.65 710.965 421.135C710.837 420.598 710.697 420.147 710.547 419.782C710.396 419.417 710.321 419.019 710.321 418.59C710.321 417.752 710.686 417.333 711.416 417.333C711.932 417.333 712.265 417.623 712.415 418.203C712.565 418.761 712.641 419.61 712.641 420.748C712.641 422.38 712.437 424.002 712.028 425.613C711.642 427.202 711.105 428.652 710.418 429.962C709.752 431.25 708.979 432.292 708.098 433.086C707.239 433.86 706.326 434.246 705.36 434.246C704.436 434.246 703.728 433.892 703.234 433.183C702.74 432.453 702.632 431.401 702.912 430.026C702.955 429.876 702.922 429.79 702.815 429.768C702.729 429.747 702.654 429.801 702.589 429.929C701.988 431.132 701.312 432.152 700.56 432.99C699.808 433.827 698.949 434.246 697.983 434.246ZM723.251 434.246C722.478 434.246 721.898 433.924 721.512 433.28C721.125 432.635 721.104 431.637 721.447 430.284L723.928 420.941C724.164 420.104 724.196 419.524 724.025 419.202C723.874 418.88 723.649 418.719 723.348 418.719C722.876 418.719 722.339 419.019 721.737 419.621C721.157 420.2 720.545 421.006 719.901 422.037C719.278 423.046 718.666 424.195 718.065 425.484C717.485 426.751 716.948 428.093 716.454 429.511C715.96 430.907 715.563 432.27 715.262 433.602C715.198 433.838 715.047 433.956 714.811 433.956H713.458C713.157 433.956 713.039 433.817 713.104 433.538L717.807 413.339C717.914 412.952 717.914 412.684 717.807 412.533C717.721 412.383 717.528 412.297 717.227 412.275L716.261 412.179C715.939 412.157 715.799 412.018 715.842 411.76C715.885 411.567 716.035 411.449 716.293 411.406C717.066 411.277 717.753 411.126 718.355 410.955C718.956 410.761 719.439 410.514 719.804 410.214C719.976 410.085 720.137 410.02 720.288 410.02C720.545 410.02 720.642 410.181 720.578 410.504L717.421 424.195C717.399 424.345 717.431 424.431 717.517 424.453C717.603 424.474 717.678 424.421 717.743 424.292C718.602 422.531 719.418 421.145 720.191 420.136C720.964 419.127 721.684 418.407 722.349 417.978C723.037 417.548 723.66 417.333 724.218 417.333C725.013 417.333 725.592 417.655 725.958 418.3C726.323 418.944 726.323 419.932 725.958 421.264L723.509 430.606C723.359 431.207 723.348 431.658 723.477 431.959C723.606 432.26 723.842 432.41 724.186 432.41C724.615 432.41 725.034 432.131 725.442 431.572C725.85 430.993 726.29 429.908 726.763 428.319C726.827 428.082 726.967 427.964 727.182 427.964C727.354 427.964 727.45 428.029 727.472 428.158C727.515 428.286 727.515 428.437 727.472 428.609C727.064 430.069 726.623 431.218 726.151 432.056C725.678 432.872 725.195 433.441 724.701 433.763C724.229 434.085 723.745 434.246 723.251 434.246ZM732.033 434.246C730.895 434.246 729.982 433.806 729.295 432.925C728.607 432.023 728.264 430.756 728.264 429.124C728.264 427.707 728.511 426.3 729.005 424.904C729.52 423.508 730.186 422.241 731.002 421.102C731.818 419.964 732.709 419.051 733.676 418.364C734.664 417.677 735.619 417.333 736.543 417.333C737.552 417.333 738.272 417.58 738.701 418.074C739.152 418.547 739.378 419.191 739.378 420.007C739.378 420.974 739.034 421.94 738.347 422.906C737.681 423.851 736.736 424.7 735.512 425.451C734.309 426.203 732.892 426.762 731.26 427.127C730.787 427.234 730.54 427.503 730.519 427.932C730.497 428.082 730.487 428.243 730.487 428.415C730.487 428.566 730.487 428.716 730.487 428.866C730.487 430.09 730.691 431.014 731.099 431.637C731.528 432.26 732.108 432.571 732.838 432.571C733.654 432.571 734.438 432.195 735.19 431.444C735.963 430.692 736.607 429.629 737.123 428.254C737.187 428.061 737.316 427.964 737.509 427.964C737.638 427.964 737.713 428.018 737.735 428.125C737.778 428.233 737.778 428.362 737.735 428.512C737.048 430.402 736.21 431.83 735.222 432.797C734.256 433.763 733.193 434.246 732.033 434.246ZM730.841 425.902C730.798 426.053 730.819 426.182 730.905 426.289C731.013 426.375 731.142 426.396 731.292 426.354C732.623 425.988 733.74 425.441 734.642 424.711C735.544 423.959 736.221 423.121 736.672 422.198C737.144 421.274 737.381 420.372 737.381 419.492C737.381 418.59 737.026 418.139 736.317 418.139C735.695 418.139 735.018 418.504 734.288 419.234C733.558 419.964 732.881 420.92 732.258 422.101C731.636 423.282 731.163 424.549 730.841 425.902ZM740.817 433.956C740.516 433.956 740.398 433.817 740.462 433.538L743.523 420.684C743.63 420.211 743.641 419.846 743.555 419.588C743.49 419.309 743.297 419.17 742.975 419.17C742.588 419.17 742.159 419.459 741.686 420.039C741.235 420.598 740.72 421.672 740.14 423.261C740.054 423.54 739.904 423.68 739.689 423.68C739.367 423.68 739.281 423.486 739.431 423.1C739.904 421.618 740.398 420.458 740.913 419.621C741.45 418.783 741.987 418.192 742.524 417.849C743.061 417.505 743.555 417.333 744.006 417.333C744.715 417.333 745.219 417.602 745.52 418.139C745.821 418.654 745.831 419.513 745.552 420.716L745.198 422.23C745.176 422.38 745.209 422.466 745.294 422.488C745.38 422.509 745.456 422.455 745.52 422.327C746.336 420.458 747.077 419.159 747.743 418.429C748.409 417.698 749.171 417.333 750.03 417.333C750.61 417.333 751.039 417.494 751.319 417.816C751.619 418.117 751.77 418.536 751.77 419.073C751.77 419.61 751.641 420.039 751.383 420.361C751.125 420.684 750.793 420.845 750.384 420.845C750.041 420.845 749.794 420.759 749.644 420.587C749.493 420.415 749.375 420.222 749.289 420.007C749.225 419.771 749.15 419.567 749.064 419.395C748.978 419.223 748.838 419.137 748.645 419.137C748.323 419.137 747.904 419.545 747.388 420.361C746.873 421.178 746.315 422.284 745.713 423.68C745.133 425.054 744.564 426.6 744.006 428.319C743.469 430.037 742.996 431.798 742.588 433.602C742.524 433.838 742.374 433.956 742.137 433.956H740.817ZM753.883 434.246C752.744 434.246 751.832 433.806 751.144 432.925C750.457 432.023 750.113 430.756 750.113 429.124C750.113 427.707 750.36 426.3 750.854 424.904C751.37 423.508 752.036 422.241 752.852 421.102C753.668 419.964 754.559 419.051 755.526 418.364C756.513 417.677 757.469 417.333 758.393 417.333C759.402 417.333 760.122 417.58 760.551 418.074C761.002 418.547 761.228 419.191 761.228 420.007C761.228 420.974 760.884 421.94 760.197 422.906C759.531 423.851 758.586 424.7 757.362 425.451C756.159 426.203 754.742 426.762 753.109 427.127C752.637 427.234 752.39 427.503 752.368 427.932C752.347 428.082 752.336 428.243 752.336 428.415C752.336 428.566 752.336 428.716 752.336 428.866C752.336 430.09 752.54 431.014 752.948 431.637C753.378 432.26 753.958 432.571 754.688 432.571C755.504 432.571 756.288 432.195 757.04 431.444C757.813 430.692 758.457 429.629 758.973 428.254C759.037 428.061 759.166 427.964 759.359 427.964C759.488 427.964 759.563 428.018 759.585 428.125C759.628 428.233 759.628 428.362 759.585 428.512C758.897 430.402 758.06 431.83 757.072 432.797C756.105 433.763 755.042 434.246 753.883 434.246ZM752.691 425.902C752.648 426.053 752.669 426.182 752.755 426.289C752.862 426.375 752.991 426.396 753.142 426.354C754.473 425.988 755.59 425.441 756.492 424.711C757.394 423.959 758.071 423.121 758.522 422.198C758.994 421.274 759.23 420.372 759.23 419.492C759.23 418.59 758.876 418.139 758.167 418.139C757.544 418.139 756.868 418.504 756.138 419.234C755.407 419.964 754.731 420.92 754.108 422.101C753.485 423.282 753.013 424.549 752.691 425.902ZM762.602 434.246C762.151 434.246 761.786 434.107 761.507 433.827C761.227 433.527 761.088 433.162 761.088 432.732C761.088 432.174 761.281 431.723 761.668 431.379C762.054 431.035 762.462 430.864 762.892 430.864C763.321 430.864 763.676 431.014 763.955 431.315C764.256 431.594 764.406 431.948 764.406 432.378C764.406 432.936 764.213 433.387 763.826 433.731C763.439 434.074 763.031 434.246 762.602 434.246Z" fill="#F5F5F4" fill-opacity="0.5"/>
<path d="M401.873 362.33V379.056H406.6V362.33C405.826 362.426 405.037 362.476 404.236 362.476C403.436 362.476 402.647 362.426 401.873 362.33ZM409.224 361.81L415.955 378.123L420.324 376.313L413.593 359.998C412.233 360.775 410.768 361.388 409.224 361.81ZM415.832 358.497L431.418 374.116L434.761 370.766L419.174 355.147C418.204 356.398 417.08 357.524 415.832 358.497ZM420.668 352.912L449.626 364.932L451.436 360.555L422.478 348.536C422.056 350.082 421.444 351.55 420.668 352.912ZM422.999 345.896H467V341.159H422.999C423.096 341.935 423.145 342.726 423.145 343.528C423.145 344.33 423.096 345.121 422.999 345.896ZM422.478 338.52L451.436 326.5L449.626 322.124L420.667 334.144C421.443 335.506 422.056 336.974 422.478 338.52ZM419.174 331.909L434.761 316.29L431.418 312.94L415.832 328.559C417.08 329.532 418.204 330.658 419.174 331.909ZM413.592 327.058L420.324 310.743L415.955 308.933L409.224 325.246C410.768 325.668 412.233 326.281 413.592 327.058ZM406.6 324.726V308H401.873V324.726C402.647 324.63 403.436 324.58 404.236 324.58C405.037 324.58 405.826 324.63 406.6 324.726ZM399.248 325.246L392.517 308.933L388.149 310.743L394.88 327.058C396.24 326.281 397.705 325.668 399.248 325.246ZM392.641 328.559L376.818 312.703L373.475 316.053L389.298 331.909C390.269 330.658 391.393 329.532 392.641 328.559ZM387.805 334.144L358.846 322.124L357.037 326.5L385.995 338.52C386.417 336.974 387.029 335.506 387.805 334.144ZM385.474 341.159H341V345.896H385.474C385.377 345.121 385.327 344.33 385.327 343.528C385.327 342.726 385.377 341.935 385.474 341.159ZM385.995 348.536L357.037 360.555L358.846 364.932L387.805 352.912C387.029 351.55 386.417 350.082 385.995 348.536ZM389.298 355.147L373.475 371.003L376.818 374.353L392.641 358.497C391.392 357.524 390.269 356.398 389.298 355.147ZM392.517 378.123L399.248 361.81C397.705 361.388 396.24 360.775 394.88 359.998L388.149 376.313L392.517 378.123Z" fill="#059669"/>
<path d="M418.418 343.528C418.418 335.679 412.069 329.317 404.236 329.317C396.404 329.317 390.055 335.679 390.055 343.528C390.055 351.377 396.404 357.739 404.236 357.739V362.476C393.793 362.476 385.327 353.993 385.327 343.528C385.327 333.063 393.793 324.58 404.236 324.58C414.68 324.58 423.145 333.063 423.145 343.528C423.145 353.993 414.68 362.476 404.236 362.476V357.739C412.069 357.739 418.418 351.377 418.418 343.528Z" fill="#059669"/>
<path d="M394.309 343.528C394.309 338.034 398.754 333.58 404.236 333.58V338.317C401.364 338.317 399.036 340.65 399.036 343.528C399.036 346.406 401.364 348.739 404.236 348.739V353.476C398.754 353.476 394.309 349.022 394.309 343.528Z" fill="#059669"/>
<path d="M503.074 358.465C498.661 358.465 495.138 357.013 492.505 354.109C489.911 351.167 488.614 347.586 488.614 343.366C488.614 339.146 489.911 335.584 492.505 332.68C495.138 329.738 498.661 328.267 503.074 328.267C506.597 328.267 509.636 329.235 512.192 331.17C514.786 333.106 516.276 335.7 516.663 338.952H511.03C510.759 337.287 509.888 335.913 508.417 334.829C506.946 333.745 505.204 333.203 503.19 333.203C500.403 333.203 498.254 334.171 496.744 336.107C495.234 338.004 494.479 340.423 494.479 343.366C494.479 346.308 495.234 348.747 496.744 350.683C498.293 352.58 500.461 353.528 503.248 353.528C505.223 353.528 506.907 353.044 508.301 352.077C509.694 351.109 510.624 349.792 511.088 348.128H516.663C516.199 351.225 514.747 353.722 512.308 355.619C509.869 357.516 506.791 358.465 503.074 358.465ZM546.554 328.731V358H540.921V352.832C540.147 354.651 538.927 356.045 537.262 357.013C535.598 357.981 533.662 358.465 531.455 358.465C528.164 358.465 525.512 357.381 523.499 355.213C521.525 353.044 520.537 350.218 520.537 346.734V328.731H526.17V345.63C526.17 347.953 526.79 349.831 528.029 351.264C529.306 352.696 530.971 353.412 533.023 353.412C535.307 353.412 537.185 352.58 538.656 350.915C540.166 349.25 540.921 347.14 540.921 344.585V328.731H546.554ZM565.72 333.609C560.997 333.609 558.635 337.326 558.635 344.759V358H553.002V328.731H558.635V334.364C559.293 332.39 560.242 330.957 561.481 330.067C562.719 329.176 564.365 328.731 566.417 328.731H569.959V333.609H565.72ZM573.094 358V328.731H578.727V358H573.094ZM572.745 316.478H579.017V323.563H572.745V316.478ZM609.115 354.225C606.289 357.051 602.689 358.465 598.314 358.465C593.939 358.465 590.319 357.051 587.454 354.225C584.628 351.36 583.215 347.74 583.215 343.366C583.215 338.991 584.628 335.39 587.454 332.564C590.319 329.699 593.939 328.267 598.314 328.267C602.689 328.267 606.289 329.699 609.115 332.564C611.941 335.39 613.355 338.991 613.355 343.366C613.355 347.74 611.941 351.36 609.115 354.225ZM598.314 353.528C601.063 353.528 603.289 352.58 604.992 350.683C606.734 348.786 607.605 346.347 607.605 343.366C607.605 340.385 606.734 337.945 604.992 336.048C603.289 334.151 601.063 333.203 598.314 333.203C595.526 333.203 593.261 334.151 591.519 336.048C589.816 337.945 588.964 340.385 588.964 343.366C588.964 346.347 589.816 348.786 591.519 350.683C593.261 352.58 595.526 353.528 598.314 353.528ZM627.569 358.465C624.124 358.465 621.336 357.574 619.207 355.793C617.077 354.012 615.916 351.573 615.722 348.476H621.007C621.162 350.141 621.801 351.438 622.923 352.367C624.085 353.296 625.634 353.761 627.569 353.761C629.195 353.761 630.512 353.374 631.518 352.599C632.564 351.825 633.086 350.896 633.086 349.812C633.086 348.418 632.505 347.392 631.344 346.734C630.221 346.037 628.847 345.592 627.221 345.398C625.595 345.166 623.969 344.876 622.343 344.527C620.717 344.14 619.323 343.327 618.161 342.088C617.039 340.81 616.477 339.01 616.477 336.687C616.477 334.171 617.445 332.138 619.381 330.59C621.317 329.041 623.814 328.267 626.872 328.267C630.163 328.267 632.835 329.118 634.886 330.822C636.977 332.487 638.119 334.693 638.313 337.442H632.97C632.776 335.894 632.06 334.732 630.821 333.958C629.621 333.145 628.305 332.738 626.872 332.738C625.324 332.738 624.085 333.087 623.156 333.784C622.227 334.48 621.762 335.39 621.762 336.513C621.762 337.829 622.343 338.778 623.504 339.359C624.666 339.939 626.059 340.326 627.685 340.52C629.311 340.675 630.938 340.946 632.564 341.333C634.228 341.72 635.641 342.591 636.803 343.946C637.964 345.301 638.545 347.218 638.545 349.696C638.545 352.367 637.538 354.496 635.525 356.084C633.551 357.671 630.899 358.465 627.569 358.465ZM643.18 358V328.731H648.814V358H643.18ZM642.832 316.478H649.104V323.563H642.832V316.478ZM667.529 358C664.548 358 662.167 357.148 660.386 355.445C658.644 353.741 657.773 351.399 657.773 348.418V333.609H651.792V328.731H656.089C657.212 328.731 657.773 328.17 657.773 327.047V319.556H663.406V328.731H672.059V333.609H663.406V348.244C663.406 349.792 663.813 350.993 664.626 351.844C665.439 352.696 666.542 353.122 667.936 353.122H672.059V358H667.529ZM675.878 358V328.731H681.511V358H675.878ZM675.53 316.478H681.802V323.563H675.53V316.478Z" fill="white"/>
</g>
<defs>
<filter id="filter0_n_16_556" x="0" y="0" width="1024" height="768" filterUnits="userSpaceOnUse" color-interpolation-filters="sRGB">
<feFlood flood-opacity="0" result="BackgroundImageFix"/>
<feBlend mode="normal" in="SourceGraphic" in2="BackgroundImageFix" result="shape"/>
<feTurbulence type="fractalNoise" baseFrequency="1 1" stitchTiles="stitch" numOctaves="3" result="noise" seed="5884" />
<feColorMatrix in="noise" type="luminanceToAlpha" result="alphaNoise" />
<feComponentTransfer in="alphaNoise" result="coloredNoise1">
<feFuncA type="discrete" tableValues="0 0 0 0 1 1 1 1 1 1 1 1 1 1 1 1 1 1 1 1 1 1 1 1 1 1 1 1 1 1 1 1 1 1 1 1 1 1 1 1 1 1 1 1 1 0 0 0 0 0 0 0 0 0 0 0 0 0 0 0 0 0 0 0 0 0 0 0 0 0 0 0 0 0 0 0 0 0 0 0 0 0 0 0 0 0 0 0 0 0 0 0 0 0 0 0 0 0 0 0 "/>
</feComponentTransfer>
<feComposite operator="in" in2="shape" in="coloredNoise1" result="noise1Clipped" />
<feFlood flood-color="rgba(255, 255, 255, 0.16)" result="color1Flood" />
<feComposite operator="in" in2="noise1Clipped" in="color1Flood" result="color1" />
<feMerge result="effect1_noise_16_556">
<feMergeNode in="shape" />
<feMergeNode in="color1" />
</feMerge>
</filter>
<filter id="filter1_f_16_556" x="80.5068" y="-66.4956" width="866.054" height="866.054" filterUnits="userSpaceOnUse" color-interpolation-filters="sRGB">
<feFlood flood-opacity="0" result="BackgroundImageFix"/>
<feBlend mode="normal" in="SourceGraphic" in2="BackgroundImageFix" result="shape"/>
<feGaussianBlur stdDeviation="4" result="effect1_foregroundBlur_16_556"/>
</filter>
<filter id="filter2_f_16_556" x="726.607" y="424.23" width="673.099" height="673.099" filterUnits="userSpaceOnUse" color-interpolation-filters="sRGB">
<feFlood flood-opacity="0" result="BackgroundImageFix"/>
<feBlend mode="normal" in="SourceGraphic" in2="BackgroundImageFix" result="shape"/>
<feGaussianBlur stdDeviation="4" result="effect1_foregroundBlur_16_556"/>
</filter>
<filter id="filter3_f_16_556" x="-258.669" y="-30.4966" width="454.888" height="454.888" filterUnits="userSpaceOnUse" color-interpolation-filters="sRGB">
<feFlood flood-opacity="0" result="BackgroundImageFix"/>
<feBlend mode="normal" in="SourceGraphic" in2="BackgroundImageFix" result="shape"/>
<feGaussianBlur stdDeviation="4" result="effect1_foregroundBlur_16_556"/>
</filter>
<filter id="filter4_f_16_556" x="-437.094" y="-297.465" width="2067.39" height="1728.03" filterUnits="userSpaceOnUse" color-interpolation-filters="sRGB">
<feFlood flood-opacity="0" result="BackgroundImageFix"/>
<feBlend mode="normal" in="SourceGraphic" in2="BackgroundImageFix" result="shape"/>
<feGaussianBlur stdDeviation="160" result="effect1_foregroundBlur_16_556"/>
</filter>
<filter id="filter5_f_16_556" x="479.149" y="-535.663" width="968.511" height="934.887" filterUnits="userSpaceOnUse" color-interpolation-filters="sRGB">
<feFlood flood-opacity="0" result="BackgroundImageFix"/>
<feBlend mode="normal" in="SourceGraphic" in2="BackgroundImageFix" result="shape"/>
<feGaussianBlur stdDeviation="100" result="effect1_foregroundBlur_16_556"/>
</filter>
<filter id="filter6_f_16_556" x="-439.094" y="-509.774" width="912.777" height="1005.32" filterUnits="userSpaceOnUse" color-interpolation-filters="sRGB">
<feFlood flood-opacity="0" result="BackgroundImageFix"/>
<feBlend mode="normal" in="SourceGraphic" in2="BackgroundImageFix" result="shape"/>
<feGaussianBlur stdDeviation="100" result="effect1_foregroundBlur_16_556"/>
</filter>
<filter id="filter7_f_16_556" x="-176.485" y="-893.278" width="1690.09" height="1410.91" filterUnits="userSpaceOnUse" color-interpolation-filters="sRGB">
<feFlood flood-opacity="0" result="BackgroundImageFix"/>
<feBlend mode="normal" in="SourceGraphic" in2="BackgroundImageFix" result="shape"/>
<feGaussianBlur stdDeviation="160" result="effect1_foregroundBlur_16_556"/>
</filter>
<filter id="filter8_f_16_556" x="50.897" y="-1071.3" width="1603.48" height="1590.81" filterUnits="userSpaceOnUse" color-interpolation-filters="sRGB">
<feFlood flood-opacity="0" result="BackgroundImageFix"/>
<feBlend mode="normal" in="SourceGraphic" in2="BackgroundImageFix" result="shape"/>
<feGaussianBlur stdDeviation="160" result="effect1_foregroundBlur_16_556"/>
</filter>
<radialGradient id="paint0_radial_16_556" cx="0" cy="0" r="1" gradientUnits="userSpaceOnUse" gradientTransform="translate(513.533 366.531) rotate(90) scale(12.7937)">
<stop stop-color="#ECEEED"/>
<stop offset="1" stop-color="#ECEEED" stop-opacity="0.3"/>
</radialGradient>
<radialGradient id="paint1_radial_16_556" cx="0" cy="0" r="1" gradientUnits="userSpaceOnUse" gradientTransform="translate(513.533 366.531) rotate(90) scale(5.9336)">
<stop stop-color="#ECEEED"/>
<stop offset="1" stop-color="#ECEEED" stop-opacity="0.3"/>
</radialGradient>
<radialGradient id="paint2_radial_16_556" cx="0" cy="0" r="1" gradientUnits="userSpaceOnUse" gradientTransform="translate(513.533 366.531) rotate(90) scale(21.9376)">
<stop stop-color="#ECEEED"/>
<stop offset="1" stop-color="#ECEEED" stop-opacity="0.3"/>
</radialGradient>
<radialGradient id="paint3_radial_16_556" cx="0" cy="0" r="1" gradientUnits="userSpaceOnUse" gradientTransform="translate(513.533 366.531) rotate(90) scale(36.2419)">
<stop stop-color="#ECEEED"/>
<stop offset="1" stop-color="#ECEEED" stop-opacity="0.3"/>
</radialGradient>
<radialGradient id="paint4_radial_16_556" cx="0" cy="0" r="1" gradientUnits="userSpaceOnUse" gradientTransform="translate(513.534 366.531) rotate(90) scale(52.8135)">
<stop stop-color="#ECEEED"/>
<stop offset="1" stop-color="#ECEEED" stop-opacity="0.3"/>
</radialGradient>
<radialGradient id="paint5_radial_16_556" cx="0" cy="0" r="1" gradientUnits="userSpaceOnUse" gradientTransform="translate(513.533 366.531) rotate(90) scale(73.2946)">
<stop stop-color="#ECEEED"/>
<stop offset="1" stop-color="#ECEEED" stop-opacity="0.3"/>
</radialGradient>
<radialGradient id="paint6_radial_16_556" cx="0" cy="0" r="1" gradientUnits="userSpaceOnUse" gradientTransform="translate(513.534 366.531) rotate(90) scale(96.4042)">
<stop stop-color="#ECEEED"/>
<stop offset="1" stop-color="#ECEEED" stop-opacity="0.3"/>
</radialGradient>
<radialGradient id="paint7_radial_16_556" cx="0" cy="0" r="1" gradientUnits="userSpaceOnUse" gradientTransform="translate(513.533 366.531) rotate(90) scale(118.569)">
<stop stop-color="#ECEEED"/>
<stop offset="1" stop-color="#ECEEED" stop-opacity="0.3"/>
</radialGradient>
<radialGradient id="paint8_radial_16_556" cx="0" cy="0" r="1" gradientUnits="userSpaceOnUse" gradientTransform="translate(513.533 366.531) rotate(90) scale(138.867)">
<stop stop-color="#ECEEED"/>
<stop offset="1" stop-color="#ECEEED" stop-opacity="0.3"/>
</radialGradient>
<radialGradient id="paint9_radial_16_556" cx="0" cy="0" r="1" gradientUnits="userSpaceOnUse" gradientTransform="translate(513.534 366.531) rotate(90) scale(163.915)">
<stop stop-color="#ECEEED"/>
<stop offset="1" stop-color="#ECEEED" stop-opacity="0.3"/>
</radialGradient>
<radialGradient id="paint10_radial_16_556" cx="0" cy="0" r="1" gradientUnits="userSpaceOnUse" gradientTransform="translate(513.533 366.531) rotate(90) scale(189.11)">
<stop stop-color="#ECEEED"/>
<stop offset="1" stop-color="#ECEEED" stop-opacity="0.3"/>
</radialGradient>
<radialGradient id="paint11_radial_16_556" cx="0" cy="0" r="1" gradientUnits="userSpaceOnUse" gradientTransform="translate(513.533 366.531) rotate(90) scale(219.079)">
<stop stop-color="#ECEEED"/>
<stop offset="1" stop-color="#ECEEED" stop-opacity="0.3"/>
</radialGradient>
<radialGradient id="paint12_radial_16_556" cx="0" cy="0" r="1" gradientUnits="userSpaceOnUse" gradientTransform="translate(513.533 366.531) rotate(90) scale(250.944)">
<stop stop-color="#ECEEED"/>
<stop offset="1" stop-color="#ECEEED" stop-opacity="0.3"/>
</radialGradient>
<radialGradient id="paint13_radial_16_556" cx="0" cy="0" r="1" gradientUnits="userSpaceOnUse" gradientTransform="translate(513.533 366.531) rotate(90) scale(282.808)">
<stop stop-color="#ECEEED"/>
<stop offset="1" stop-color="#ECEEED" stop-opacity="0.3"/>
</radialGradient>
<radialGradient id="paint14_radial_16_556" cx="0" cy="0" r="1" gradientUnits="userSpaceOnUse" gradientTransform="translate(513.533 366.531) rotate(90) scale(317.485)">
<stop stop-color="#ECEEED"/>
<stop offset="1" stop-color="#ECEEED" stop-opacity="0.3"/>
</radialGradient>
<radialGradient id="paint15_radial_16_556" cx="0" cy="0" r="1" gradientUnits="userSpaceOnUse" gradientTransform="translate(513.534 366.531) rotate(90) scale(353.883)">
<stop stop-color="#ECEEED"/>
<stop offset="1" stop-color="#ECEEED" stop-opacity="0.3"/>
</radialGradient>
<radialGradient id="paint16_radial_16_556" cx="0" cy="0" r="1" gradientUnits="userSpaceOnUse" gradientTransform="translate(513.534 366.531) rotate(90) scale(389.894)">
<stop stop-color="#ECEEED"/>
<stop offset="1" stop-color="#ECEEED" stop-opacity="0.3"/>
</radialGradient>
<radialGradient id="paint17_radial_16_556" cx="0" cy="0" r="1" gradientUnits="userSpaceOnUse" gradientTransform="translate(513.534 366.531) rotate(90) scale(425.027)">
<stop stop-color="#ECEEED"/>
<stop offset="1" stop-color="#ECEEED" stop-opacity="0.3"/>
</radialGradient>
<radialGradient id="paint18_radial_16_556" cx="0" cy="0" r="1" gradientUnits="userSpaceOnUse" gradientTransform="translate(1063.16 760.78) rotate(90) scale(40.8253)">
<stop stop-color="#ECEEED"/>
<stop offset="1" stop-color="#ECEEED" stop-opacity="0.3"/>
</radialGradient>
<radialGradient id="paint19_radial_16_556" cx="0" cy="0" r="1" gradientUnits="userSpaceOnUse" gradientTransform="translate(1063.16 760.78) rotate(90) scale(56.6573)">
<stop stop-color="#ECEEED"/>
<stop offset="1" stop-color="#ECEEED" stop-opacity="0.3"/>
</radialGradient>
<radialGradient id="paint20_radial_16_556" cx="0" cy="0" r="1" gradientUnits="userSpaceOnUse" gradientTransform="translate(1063.16 760.78) rotate(90) scale(74.5213)">
<stop stop-color="#ECEEED"/>
<stop offset="1" stop-color="#ECEEED" stop-opacity="0.3"/>
</radialGradient>
<radialGradient id="paint21_radial_16_556" cx="0" cy="0" r="1" gradientUnits="userSpaceOnUse" gradientTransform="translate(1063.16 760.78) rotate(90) scale(91.6549)">
<stop stop-color="#ECEEED"/>
<stop offset="1" stop-color="#ECEEED" stop-opacity="0.3"/>
</radialGradient>
<radialGradient id="paint22_radial_16_556" cx="0" cy="0" r="1" gradientUnits="userSpaceOnUse" gradientTransform="translate(1063.16 760.78) rotate(90) scale(107.345)">
<stop stop-color="#ECEEED"/>
<stop offset="1" stop-color="#ECEEED" stop-opacity="0.3"/>
</radialGradient>
<radialGradient id="paint23_radial_16_556" cx="0" cy="0" r="1" gradientUnits="userSpaceOnUse" gradientTransform="translate(1063.16 760.78) rotate(90) scale(126.708)">
<stop stop-color="#ECEEED"/>
<stop offset="1" stop-color="#ECEEED" stop-opacity="0.3"/>
</radialGradient>
<radialGradient id="paint24_radial_16_556" cx="0" cy="0" r="1" gradientUnits="userSpaceOnUse" gradientTransform="translate(1063.16 760.78) rotate(90) scale(146.184)">
<stop stop-color="#ECEEED"/>
<stop offset="1" stop-color="#ECEEED" stop-opacity="0.3"/>
</radialGradient>
<radialGradient id="paint25_radial_16_556" cx="0" cy="0" r="1" gradientUnits="userSpaceOnUse" gradientTransform="translate(1063.16 760.78) rotate(90) scale(169.35)">
<stop stop-color="#ECEEED"/>
<stop offset="1" stop-color="#ECEEED" stop-opacity="0.3"/>
</radialGradient>
<radialGradient id="paint26_radial_16_556" cx="0" cy="0" r="1" gradientUnits="userSpaceOnUse" gradientTransform="translate(1063.16 760.78) rotate(90) scale(193.981)">
<stop stop-color="#ECEEED"/>
<stop offset="1" stop-color="#ECEEED" stop-opacity="0.3"/>
</radialGradient>
<radialGradient id="paint27_radial_16_556" cx="0" cy="0" r="1" gradientUnits="userSpaceOnUse" gradientTransform="translate(1063.16 760.78) rotate(90) scale(218.613)">
<stop stop-color="#ECEEED"/>
<stop offset="1" stop-color="#ECEEED" stop-opacity="0.3"/>
</radialGradient>
<radialGradient id="paint28_radial_16_556" cx="0" cy="0" r="1" gradientUnits="userSpaceOnUse" gradientTransform="translate(1063.16 760.78) rotate(90) scale(245.419)">
<stop stop-color="#ECEEED"/>
<stop offset="1" stop-color="#ECEEED" stop-opacity="0.3"/>
</radialGradient>
<radialGradient id="paint29_radial_16_556" cx="0" cy="0" r="1" gradientUnits="userSpaceOnUse" gradientTransform="translate(1063.16 760.78) rotate(90) scale(273.555)">
<stop stop-color="#ECEEED"/>
<stop offset="1" stop-color="#ECEEED" stop-opacity="0.3"/>
</radialGradient>
<radialGradient id="paint30_radial_16_556" cx="0" cy="0" r="1" gradientUnits="userSpaceOnUse" gradientTransform="translate(1063.16 760.78) rotate(90) scale(301.391)">
<stop stop-color="#ECEEED"/>
<stop offset="1" stop-color="#ECEEED" stop-opacity="0.3"/>
</radialGradient>
<radialGradient id="paint31_radial_16_556" cx="0" cy="0" r="1" gradientUnits="userSpaceOnUse" gradientTransform="translate(1063.16 760.78) rotate(90) scale(328.549)">
<stop stop-color="#ECEEED"/>
<stop offset="1" stop-color="#ECEEED" stop-opacity="0.3"/>
</radialGradient>
<radialGradient id="paint32_radial_16_556" cx="0" cy="0" r="1" gradientUnits="userSpaceOnUse" gradientTransform="translate(-31.2254 196.947) rotate(90) scale(37.8424)">
<stop stop-color="#ECEEED"/>
<stop offset="1" stop-color="#ECEEED" stop-opacity="0.3"/>
</radialGradient>
<radialGradient id="paint33_radial_16_556" cx="0" cy="0" r="1" gradientUnits="userSpaceOnUse" gradientTransform="translate(-31.225 196.947) rotate(90) scale(49.7741)">
<stop stop-color="#ECEEED"/>
<stop offset="1" stop-color="#ECEEED" stop-opacity="0.3"/>
</radialGradient>
<radialGradient id="paint34_radial_16_556" cx="0" cy="0" r="1" gradientUnits="userSpaceOnUse" gradientTransform="translate(-31.2257 196.947) rotate(90) scale(61.2179)">
<stop stop-color="#ECEEED"/>
<stop offset="1" stop-color="#ECEEED" stop-opacity="0.3"/>
</radialGradient>
<radialGradient id="paint35_radial_16_556" cx="0" cy="0" r="1" gradientUnits="userSpaceOnUse" gradientTransform="translate(-31.2256 196.947) rotate(90) scale(71.6979)">
<stop stop-color="#ECEEED"/>
<stop offset="1" stop-color="#ECEEED" stop-opacity="0.3"/>
</radialGradient>
<radialGradient id="paint36_radial_16_556" cx="0" cy="0" r="1" gradientUnits="userSpaceOnUse" gradientTransform="translate(-31.2255 196.947) rotate(90) scale(84.6305)">
<stop stop-color="#ECEEED"/>
<stop offset="1" stop-color="#ECEEED" stop-opacity="0.3"/>
</radialGradient>
<radialGradient id="paint37_radial_16_556" cx="0" cy="0" r="1" gradientUnits="userSpaceOnUse" gradientTransform="translate(-31.2253 196.947) rotate(90) scale(97.6387)">
<stop stop-color="#ECEEED"/>
<stop offset="1" stop-color="#ECEEED" stop-opacity="0.3"/>
</radialGradient>
<radialGradient id="paint38_radial_16_556" cx="0" cy="0" r="1" gradientUnits="userSpaceOnUse" gradientTransform="translate(-31.2257 196.947) rotate(90) scale(113.112)">
<stop stop-color="#ECEEED"/>
<stop offset="1" stop-color="#ECEEED" stop-opacity="0.3"/>
</radialGradient>
<radialGradient id="paint39_radial_16_556" cx="0" cy="0" r="1" gradientUnits="userSpaceOnUse" gradientTransform="translate(-31.2254 196.947) rotate(90) scale(129.564)">
<stop stop-color="#ECEEED"/>
<stop offset="1" stop-color="#ECEEED" stop-opacity="0.3"/>
</radialGradient>
<radialGradient id="paint40_radial_16_556" cx="0" cy="0" r="1" gradientUnits="userSpaceOnUse" gradientTransform="translate(-31.2253 196.947) rotate(90) scale(146.016)">
<stop stop-color="#ECEEED"/>
<stop offset="1" stop-color="#ECEEED" stop-opacity="0.3"/>
</radialGradient>
<radialGradient id="paint41_radial_16_556" cx="0" cy="0" r="1" gradientUnits="userSpaceOnUse" gradientTransform="translate(-31.2257 196.947) rotate(90) scale(163.919)">
<stop stop-color="#ECEEED"/>
<stop offset="1" stop-color="#ECEEED" stop-opacity="0.3"/>
</radialGradient>
<radialGradient id="paint42_radial_16_556" cx="0" cy="0" r="1" gradientUnits="userSpaceOnUse" gradientTransform="translate(-31.2248 196.947) rotate(90) scale(182.712)">
<stop stop-color="#ECEEED"/>
<stop offset="1" stop-color="#ECEEED" stop-opacity="0.3"/>
</radialGradient>
<radialGradient id="paint43_radial_16_556" cx="0" cy="0" r="1" gradientUnits="userSpaceOnUse" gradientTransform="translate(-31.2251 196.947) rotate(90) scale(201.304)">
<stop stop-color="#ECEEED"/>
<stop offset="1" stop-color="#ECEEED" stop-opacity="0.3"/>
</radialGradient>
<radialGradient id="paint44_radial_16_556" cx="0" cy="0" r="1" gradientUnits="userSpaceOnUse" gradientTransform="translate(-31.2251 196.947) rotate(90) scale(219.444)">
<stop stop-color="#ECEEED"/>
<stop offset="1" stop-color="#ECEEED" stop-opacity="0.3"/>
</radialGradient>
<clipPath id="clip0_16_556">
<rect width="1024" height="768" fill="white"/>
</clipPath>
</defs>
</svg>
