<svg width="148" height="65" viewBox="0 0 148 65" fill="none" xmlns="http://www.w3.org/2000/svg">
<mask id="mask0_502_15314" style="mask-type:alpha" maskUnits="userSpaceOnUse" x="0" y="-22" width="150" height="87">
<rect y="-21.2598" width="149.76" height="85.76" fill="url(#paint0_radial_502_15314)"/>
</mask>
<g mask="url(#mask0_502_15314)">
<g filter="url(#filter0_dddd_502_15314)">
<path d="M76.4551 1.375L77.2588 1.40527C77.8895 1.44025 78.4343 1.50332 78.9746 1.61816L79.2988 1.69336L79.3018 1.69434L79.8652 1.85547L80.4209 2.04102L80.4238 2.04199L80.8896 2.22754C81.9508 2.68179 82.8605 3.30229 84.4072 4.35547H84.4062C86.4817 5.76528 88.8778 7.50226 90.6328 9.10059H90.6318C92.3556 10.6678 94.2925 12.8507 95.8867 14.7568L96.5479 15.5537L96.5488 15.5547L96.6016 15.6201L96.9033 15.9941L97.1738 16.3535L97.1777 16.3594L97.4014 16.6924C98.4171 18.2634 99.0547 20.0557 99.2637 21.9238L99.3027 22.3262V22.333L99.3223 22.874C99.325 23.068 99.3252 23.2894 99.3252 23.5791V24.0146H99.3018C99.3214 24.8588 99.3242 25.8213 99.3242 26.9395V27.9355C99.3242 32.0401 99.3246 38.3994 99.0107 44.0527C98.8538 46.8784 98.618 49.5405 98.2617 51.6611C98.0837 52.7208 97.8732 53.6565 97.624 54.415C97.3789 55.1611 97.0799 55.7881 96.6943 56.1807C95.3478 57.5514 93.6063 58.2129 91.2285 58.5391C88.864 58.8634 85.806 58.8633 81.7881 58.8633H73.2383C69.2205 58.8633 66.1616 58.8641 63.7969 58.54C61.5674 58.2345 59.8976 57.6334 58.5889 56.4287L58.332 56.1797C57.947 55.7869 57.6482 55.1601 57.4033 54.4141C57.1543 53.6554 56.9446 52.7198 56.7666 51.6602C56.4105 49.5395 56.1736 46.8781 56.0166 44.0527C55.7024 38.3996 55.7021 32.0403 55.7021 27.9355V19.2236C55.7021 15.1292 55.7017 12.0149 56.0195 9.60742C56.3389 7.18833 56.9864 5.41675 58.332 4.04688L58.5898 3.79883C59.9003 2.59506 61.5756 1.99418 63.8145 1.68848C66.1895 1.36418 69.2635 1.36426 73.3027 1.36426C74.3439 1.36426 75.2258 1.36615 75.9922 1.38574V1.36426L76.4551 1.375Z" fill="#D6D3D1" stroke="#059669" stroke-width="0.870706"/>
<path fill-rule="evenodd" clip-rule="evenodd" d="M98.889 26.8569V26.819C98.889 25.5454 98.8891 24.4872 98.8577 23.5797C98.851 23.3862 98.8426 23.1995 98.8325 23.0191C98.888 24.0542 98.889 25.294 98.889 26.8569ZM76.5088 1.83704L76.4463 1.83447L76.4661 2.34845C76.4671 2.17529 76.4813 2.00482 76.5088 1.83704Z" fill="#78716C"/>
<path d="M76.4463 1.83447L76.4667 2.36594C76.4667 2.18589 76.4803 2.01128 76.5088 1.83704L76.4463 1.83447Z" fill="#D6D3D1"/>
<path fill-rule="evenodd" clip-rule="evenodd" d="M81.7884 58.4278H73.2382C65.1774 58.4278 61.146 58.4278 58.6429 55.8752C56.1398 53.3226 56.1377 36.149 56.1377 27.9358V19.2238C56.1377 11.0106 56.1377 6.90286 58.6429 4.35242C61.1481 1.80198 65.1988 1.7998 73.3023 1.7998C74.5977 1.7998 75.6344 1.7998 76.5086 1.83683C76.4801 2.01107 76.4659 2.18821 76.4659 2.36826L76.4445 8.54071C76.4445 10.93 76.4445 13.0426 76.669 14.7437C76.9126 16.5884 77.4705 18.4332 78.9497 19.9404C80.4246 21.4432 82.2373 22.0138 84.0478 22.2621C85.7172 22.4908 87.7907 22.4908 90.1356 22.4908H98.797C98.8889 23.6539 98.8889 25.0826 98.8889 26.984V27.9358C98.8889 36.149 98.8889 53.3247 96.3837 55.8752C93.8784 58.4256 89.8491 58.4278 81.7884 58.4278Z" fill="#78716C"/>
<path fill-rule="evenodd" clip-rule="evenodd" d="M81.7884 58.4278H73.2382C65.1774 58.4278 61.146 58.4278 58.6429 55.8752C56.1398 53.3226 56.1377 36.149 56.1377 27.9358V19.2238C56.1377 11.0106 56.1377 6.90286 58.6429 4.35242C61.1481 1.80198 65.1988 1.7998 73.3023 1.7998C74.5977 1.7998 75.6344 1.7998 76.5086 1.83683C76.4801 2.01107 76.4659 2.18821 76.4659 2.36826L76.4445 8.54071C76.4445 10.93 76.4445 13.0426 76.669 14.7437C76.9126 16.5884 77.4705 18.4332 78.9497 19.9404C80.4246 21.4432 82.2373 22.0138 84.0478 22.2621C85.7172 22.4908 87.7907 22.4908 90.1356 22.4908H98.797C98.8889 23.6539 98.8889 25.0826 98.8889 26.984V27.9358C98.8889 36.149 98.8889 53.3247 96.3837 55.8752C93.8784 58.4256 89.8491 58.4278 81.7884 58.4278Z" fill="url(#paint1_radial_502_15314)"/>
<g filter="url(#filter1_dddd_502_15314)">
<path d="M77.4551 33.6567L77.4551 45.3696" stroke="#FAFAF9" stroke-width="1.64712" stroke-linecap="round" stroke-linejoin="round"/>
<path d="M71.6006 39.5142L83.3134 39.5142" stroke="#FAFAF9" stroke-width="1.64712" stroke-linecap="round" stroke-linejoin="round"/>
</g>
<path d="M76.4677 2.36642L76.4463 8.54105C76.4463 10.9303 76.4463 13.0408 76.6707 14.744C76.9144 16.5888 77.4723 18.4335 78.9515 19.9385C80.4264 21.4435 82.2391 22.0142 84.0496 22.2625C85.719 22.4911 87.7925 22.4911 90.1374 22.4911L98.7987 22.4911C98.8272 22.828 98.8472 23.191 98.8586 23.5801H98.8907C98.8907 22.9964 98.8907 22.7046 98.8693 22.3605C98.7069 20.2903 97.9995 18.3031 96.8215 16.6084C96.6206 16.3296 96.4838 16.1641 96.2123 15.8308C94.5172 13.7661 92.2856 11.1917 90.3404 9.42314C88.609 7.84627 86.2342 6.12347 84.1629 4.71649C82.3844 3.50552 81.4952 2.90003 80.2747 2.45137C79.9191 2.32342 79.5583 2.2115 79.1931 2.11595C78.3722 1.90904 77.5728 1.83717 76.4463 1.81104L76.4677 2.36642Z" fill="#059669"/>
</g>
<g filter="url(#filter2_dddd_502_15314)">
<path d="M119.013 22.9858L119.549 23.2699C120.051 23.5463 120.457 23.8093 120.847 24.1337L120.85 24.1349L121.183 24.4294L121.503 24.7381L121.504 24.7398L121.763 25.0184C122.342 25.6751 122.766 26.396 123.487 27.6198L123.854 28.2492C124.719 29.7472 125.625 31.4352 126.23 32.8907L126.518 33.6178C127.087 35.1228 127.609 36.9044 128.024 38.4649L128.222 39.2243L128.223 39.2257L128.238 39.2873L128.325 39.6402L128.397 39.9737L128.398 39.9794L128.445 40.2795C128.641 41.6827 128.51 43.1131 128.062 44.4546L127.962 44.7402L127.96 44.7455L127.802 45.1205C127.743 45.2535 127.673 45.4043 127.582 45.6016L127.444 45.8993L127.429 45.8921C127.176 46.4734 126.874 47.1293 126.521 47.8904L126.207 48.5692C124.912 51.3649 122.905 55.6963 120.908 59.4442C119.909 61.3173 118.908 63.0528 117.997 64.3806C117.541 65.0443 117.103 65.6135 116.693 66.0487C116.341 66.4232 115.99 66.722 115.648 66.8853L115.503 66.9464C114.153 67.4389 112.758 67.3195 111.037 66.7629C109.324 66.2094 107.241 65.2074 104.505 63.8912L98.6812 61.0904C95.9447 59.7743 93.8613 58.7735 92.3532 57.7783C90.9316 56.8403 89.9836 55.8841 89.4723 54.6353L89.376 54.3809C89.2376 53.9871 89.232 53.4619 89.3007 52.8733C89.3704 52.2749 89.5227 51.5688 89.7358 50.7887C90.1624 49.2275 90.8414 47.3372 91.6259 45.3613C93.1957 41.4078 95.2015 37.0759 96.4967 34.2802L99.2457 28.3459C100.538 25.5573 101.52 23.4359 102.497 21.9C103.478 20.3566 104.478 19.3619 105.827 18.8696L106.08 18.7846C107.353 18.3939 108.683 18.5335 110.304 19.0586C112.024 19.6156 114.117 20.6224 116.868 21.9455C117.577 22.2868 118.178 22.5777 118.694 22.8423L118.701 22.8272L119.013 22.9858Z" fill="#D6D3D1" stroke="#D6D3D1" stroke-width="0.655802"/>
<path fill-rule="evenodd" clip-rule="evenodd" d="M126.252 47.6915L126.264 47.6657C126.666 46.7982 127 46.0775 127.265 45.449C127.321 45.315 127.375 45.1852 127.425 45.059C127.136 45.7822 126.745 46.627 126.252 47.6915ZM118.903 23.3186L118.861 23.2964L118.713 23.653C118.768 23.5353 118.831 23.4239 118.903 23.3186Z" fill="#78716C"/>
<path d="M118.861 23.2964L118.708 23.6651C118.764 23.5424 118.829 23.4279 118.903 23.3186L118.861 23.2964Z" fill="#D6D3D1"/>
<path fill-rule="evenodd" clip-rule="evenodd" d="M104.642 63.5938L98.8187 60.7929C93.3284 58.1523 90.5825 56.8317 89.683 54.2731C88.7835 51.7145 94.2009 40.0166 96.7924 34.4224L99.5413 28.4884C102.133 22.8942 103.429 20.0964 105.94 19.1799C108.451 18.2634 111.211 19.5889 116.73 22.2434C117.613 22.6678 118.319 23.0074 118.902 23.319C118.828 23.4283 118.762 23.5443 118.706 23.6669L116.743 27.8641C115.99 29.4915 115.323 30.9305 114.939 32.1626C114.523 33.4989 114.321 34.9382 114.853 36.4493C115.383 37.9561 116.438 38.9385 117.593 39.7007C118.658 40.4034 120.07 41.0826 121.667 41.8508L127.567 44.6881C127.262 45.5104 126.811 46.4835 126.211 47.7786L125.911 48.4269C123.32 54.0211 117.9 65.7198 115.389 66.6363C112.878 67.5528 110.133 66.2343 104.642 63.5938Z" fill="#A8A29E"/>
<path d="M118.707 23.6651L116.745 27.8637C115.991 29.4911 115.325 30.9286 114.94 32.1622C114.524 33.4985 114.322 34.9378 114.855 36.4475C115.384 37.9557 116.439 38.9382 117.594 39.7004C118.659 40.403 120.071 41.0822 121.668 41.8504L127.568 44.6877C127.481 44.9265 127.38 45.1802 127.265 45.449L127.287 45.4595C127.471 45.062 127.563 44.8632 127.657 44.6218C128.2 43.1586 128.345 41.5733 128.077 40.0331C128.028 39.7774 127.987 39.6198 127.908 39.3039C127.404 37.3423 126.697 34.8578 125.93 33.016C125.248 31.3748 124.174 29.4234 123.207 27.7866C122.378 26.3792 121.963 25.6755 121.274 24.97C121.072 24.7664 120.861 24.572 120.643 24.3873C120.149 23.9774 119.627 23.6666 118.868 23.2798L118.707 23.6651Z" fill="#D6D3D1"/>
<rect x="100.861" y="39.3369" width="20.8706" height="2.01974" rx="1.00987" transform="rotate(25.268 100.861 39.3369)" fill="#D6D3D1"/>
<rect x="98.8506" y="43.5986" width="14.1381" height="2.01974" rx="1.00987" transform="rotate(25.268 98.8506 43.5986)" fill="#D6D3D1"/>
<rect x="96.8379" y="47.8608" width="18.1776" height="2.01974" rx="1.00987" transform="rotate(25.268 96.8379 47.8608)" fill="#D6D3D1"/>
</g>
<g filter="url(#filter3_dddd_502_15314)">
<path d="M36.1797 17.0686L36.8424 16.8511C37.4711 16.6567 38.0109 16.5323 38.588 16.4695L38.5908 16.4685L39.0965 16.43L39.603 16.414L39.6061 16.4139L40.04 16.4239C41.0361 16.4735 41.9573 16.705 43.5232 17.0957L44.3258 17.2991C46.2296 17.7916 48.3182 18.405 49.9762 19.0807L49.9753 19.081C51.8357 19.8373 54.0492 21.0309 55.9026 22.1024L56.6728 22.5521L56.6741 22.5527L56.7361 22.5901L57.0902 22.8035L57.4153 23.0142L57.4206 23.0174L57.2033 23.3292L57.421 23.0183C58.834 24.0155 59.9747 25.3591 60.7394 26.9224L60.8875 27.2383L60.8894 27.2438L61.0632 27.6782C61.122 27.8357 61.1861 28.0167 61.2706 28.2533L61.3974 28.6083L61.3781 28.6154C61.6397 29.2971 61.9227 30.0797 62.2479 30.9903L62.5379 31.8024C63.7319 35.1465 65.5813 40.3279 66.9702 45.0288C67.6643 47.3781 68.2467 49.6173 68.5734 51.4527C68.7367 52.37 68.8382 53.1966 68.8558 53.8901C68.871 54.4869 68.8253 55.0217 68.6797 55.4384L68.6112 55.6095C67.913 57.1328 66.6871 58.1975 64.8452 59.1812C63.0134 60.1594 60.5222 61.0826 57.2488 62.2961L50.2823 64.8785C47.0092 66.0919 44.5183 67.0163 42.4977 67.4665C40.5926 67.8909 39.057 67.9058 37.6404 67.3196L37.3594 67.1947C36.9312 66.991 36.5049 66.5701 36.0882 66.0361C35.6645 65.4931 35.221 64.7942 34.7677 63.9845C33.8606 62.3641 32.8936 60.2668 31.9436 58.0122C30.0431 53.5013 28.1938 48.3206 26.9997 44.9764L24.4652 37.8782C23.2742 34.5425 22.3665 32.0056 21.925 29.948C21.4814 27.8803 21.4949 26.2413 22.1927 24.7187L22.3298 24.4377C23.0473 23.0615 24.2375 22.066 25.9721 21.1411C27.8125 20.1597 30.3167 19.2327 33.6074 18.0128C34.4564 17.6981 35.1759 17.432 35.8063 17.2164L35.8001 17.1989L36.1797 17.0686Z" fill="#D6D3D1" stroke="#D6D3D1" stroke-width="0.754873"/>
<path fill-rule="evenodd" clip-rule="evenodd" d="M61.8695 31.0555L61.8585 31.0246C61.488 29.9869 61.1802 29.1248 60.8906 28.3949C60.8288 28.2392 60.7677 28.0897 60.707 27.9458C61.0534 28.7723 61.4148 29.7822 61.8695 31.0555ZM36.3573 17.4305L36.3057 17.4473L36.4713 17.86C36.4218 17.7187 36.3838 17.5755 36.3573 17.4305Z" fill="#78716C"/>
<path d="M36.3057 17.4473L36.4769 17.8741C36.4246 17.7274 36.3848 17.5811 36.3573 17.4305L36.3057 17.4473Z" fill="#D6D3D1"/>
<path fill-rule="evenodd" clip-rule="evenodd" d="M57.1218 61.9408L50.1557 64.5232C43.5884 66.9577 40.3039 68.1752 37.522 66.8516C34.7401 65.5279 29.7425 51.5368 27.3532 44.8453L24.8188 37.7475C22.4295 31.056 21.2345 27.7093 22.5336 24.8748C23.8328 22.0403 27.1323 20.8151 33.7344 18.3677C34.7897 17.9765 35.6344 17.6634 36.3574 17.4295C36.3849 17.5801 36.4248 17.7287 36.4772 17.8754L38.2554 22.9107C38.9505 24.8573 39.565 26.5785 40.2427 27.8966C40.9779 29.3259 41.9691 30.6604 43.6127 31.4416C45.2515 32.2205 46.8943 32.138 48.4416 31.7935C49.8683 31.4756 51.5576 30.8494 53.468 30.1412L60.5246 27.5252C60.9379 28.445 61.3535 29.6091 61.9066 31.1582L62.1835 31.9336C64.5728 38.6252 69.5694 52.6186 68.2703 55.4531C66.9711 58.2876 63.689 59.5063 57.1218 61.9408Z" fill="#78716C"/>
<path d="M36.4778 17.8738L38.2566 22.9108C38.9517 24.8574 39.5657 26.5769 40.244 27.8967C40.9792 29.3261 41.9704 30.6606 43.6133 31.44C45.2528 32.2207 46.8956 32.1381 48.4429 31.7936C49.8695 31.4757 51.5588 30.8495 53.4693 30.1413L60.5259 27.5254C60.6471 27.7912 60.769 28.081 60.8914 28.3946L60.9176 28.3849C60.7478 27.9093 60.6629 27.6715 60.5453 27.3976C59.8108 25.7601 58.6564 24.3547 57.2036 23.3297C56.9588 23.1633 56.7992 23.0697 56.4811 22.8802C54.4994 21.71 51.9324 20.2866 49.8331 19.4332C47.9638 18.6714 45.5278 17.985 43.4309 17.4643C41.6297 17.0148 40.7291 16.7901 39.6042 16.7932C39.2773 16.7963 38.9507 16.8141 38.6254 16.8466C37.8964 16.9259 37.2242 17.1088 36.2988 17.4277L36.4778 17.8738Z" fill="#D6D3D1"/>
<rect x="34.9297" y="45.499" width="24.0235" height="2.32486" rx="1.16243" transform="rotate(-19.9924 34.9297 45.499)" fill="#D6D3D1"/>
<rect x="36.7842" y="50.5972" width="16.274" height="2.32486" rx="1.16243" transform="rotate(-19.9924 36.7842 50.5972)" fill="#D6D3D1"/>
<rect x="38.6387" y="55.6938" width="20.9237" height="2.32486" rx="1.16243" transform="rotate(-19.9924 38.6387 55.6938)" fill="#D6D3D1"/>
</g>
</g>
<defs>
<filter id="filter0_dddd_502_15314" x="48.1792" y="-0.499021" width="58.6689" height="84.6032" filterUnits="userSpaceOnUse" color-interpolation-filters="sRGB">
<feFlood flood-opacity="0" result="BackgroundImageFix"/>
<feColorMatrix in="SourceAlpha" type="matrix" values="0 0 0 0 0 0 0 0 0 0 0 0 0 0 0 0 0 0 127 0" result="hardAlpha"/>
<feOffset dy="1.41748"/>
<feGaussianBlur stdDeviation="1.41748"/>
<feColorMatrix type="matrix" values="0 0 0 0 0 0 0 0 0 0 0 0 0 0 0 0 0 0 0.1 0"/>
<feBlend mode="normal" in2="BackgroundImageFix" result="effect1_dropShadow_502_15314"/>
<feColorMatrix in="SourceAlpha" type="matrix" values="0 0 0 0 0 0 0 0 0 0 0 0 0 0 0 0 0 0 127 0" result="hardAlpha"/>
<feOffset dy="4.25243"/>
<feGaussianBlur stdDeviation="2.12622"/>
<feColorMatrix type="matrix" values="0 0 0 0 0 0 0 0 0 0 0 0 0 0 0 0 0 0 0.09 0"/>
<feBlend mode="normal" in2="effect1_dropShadow_502_15314" result="effect2_dropShadow_502_15314"/>
<feColorMatrix in="SourceAlpha" type="matrix" values="0 0 0 0 0 0 0 0 0 0 0 0 0 0 0 0 0 0 127 0" result="hardAlpha"/>
<feOffset dy="9.92235"/>
<feGaussianBlur stdDeviation="3.18933"/>
<feColorMatrix type="matrix" values="0 0 0 0 0 0 0 0 0 0 0 0 0 0 0 0 0 0 0.05 0"/>
<feBlend mode="normal" in2="effect2_dropShadow_502_15314" result="effect3_dropShadow_502_15314"/>
<feColorMatrix in="SourceAlpha" type="matrix" values="0 0 0 0 0 0 0 0 0 0 0 0 0 0 0 0 0 0 127 0" result="hardAlpha"/>
<feOffset dy="17.7185"/>
<feGaussianBlur stdDeviation="3.54369"/>
<feColorMatrix type="matrix" values="0 0 0 0 0 0 0 0 0 0 0 0 0 0 0 0 0 0 0.02 0"/>
<feBlend mode="normal" in2="effect3_dropShadow_502_15314" result="effect4_dropShadow_502_15314"/>
<feBlend mode="normal" in="SourceGraphic" in2="effect4_dropShadow_502_15314" result="shape"/>
</filter>
<filter id="filter1_dddd_502_15314" x="64.2776" y="30.7285" width="26.354" height="34.0405" filterUnits="userSpaceOnUse" color-interpolation-filters="sRGB">
<feFlood flood-opacity="0" result="BackgroundImageFix"/>
<feColorMatrix in="SourceAlpha" type="matrix" values="0 0 0 0 0 0 0 0 0 0 0 0 0 0 0 0 0 0 127 0" result="hardAlpha"/>
<feOffset dy="1.09808"/>
<feGaussianBlur stdDeviation="0.549039"/>
<feColorMatrix type="matrix" values="0 0 0 0 0 0 0 0 0 0 0 0 0 0 0 0 0 0 0.1 0"/>
<feBlend mode="normal" in2="BackgroundImageFix" result="effect1_dropShadow_502_15314"/>
<feColorMatrix in="SourceAlpha" type="matrix" values="0 0 0 0 0 0 0 0 0 0 0 0 0 0 0 0 0 0 127 0" result="hardAlpha"/>
<feOffset dy="3.29423"/>
<feGaussianBlur stdDeviation="1.64712"/>
<feColorMatrix type="matrix" values="0 0 0 0 0 0 0 0 0 0 0 0 0 0 0 0 0 0 0.09 0"/>
<feBlend mode="normal" in2="effect1_dropShadow_502_15314" result="effect2_dropShadow_502_15314"/>
<feColorMatrix in="SourceAlpha" type="matrix" values="0 0 0 0 0 0 0 0 0 0 0 0 0 0 0 0 0 0 127 0" result="hardAlpha"/>
<feOffset dy="6.58847"/>
<feGaussianBlur stdDeviation="2.19616"/>
<feColorMatrix type="matrix" values="0 0 0 0 0 0 0 0 0 0 0 0 0 0 0 0 0 0 0.05 0"/>
<feBlend mode="normal" in2="effect2_dropShadow_502_15314" result="effect3_dropShadow_502_15314"/>
<feColorMatrix in="SourceAlpha" type="matrix" values="0 0 0 0 0 0 0 0 0 0 0 0 0 0 0 0 0 0 127 0" result="hardAlpha"/>
<feOffset dy="12.0789"/>
<feGaussianBlur stdDeviation="2.19616"/>
<feColorMatrix type="matrix" values="0 0 0 0 0 0 0 0 0 0 0 0 0 0 0 0 0 0 0.01 0"/>
<feBlend mode="normal" in2="effect3_dropShadow_502_15314" result="effect4_dropShadow_502_15314"/>
<feBlend mode="normal" in="SourceGraphic" in2="effect4_dropShadow_502_15314" result="shape"/>
</filter>
<filter id="filter2_dddd_502_15314" x="83.5935" y="17.1633" width="50.604" height="69.106" filterUnits="userSpaceOnUse" color-interpolation-filters="sRGB">
<feFlood flood-opacity="0" result="BackgroundImageFix"/>
<feColorMatrix in="SourceAlpha" type="matrix" values="0 0 0 0 0 0 0 0 0 0 0 0 0 0 0 0 0 0 127 0" result="hardAlpha"/>
<feOffset dy="1.06762"/>
<feGaussianBlur stdDeviation="1.06762"/>
<feColorMatrix type="matrix" values="0 0 0 0 0 0 0 0 0 0 0 0 0 0 0 0 0 0 0.1 0"/>
<feBlend mode="normal" in2="BackgroundImageFix" result="effect1_dropShadow_502_15314"/>
<feColorMatrix in="SourceAlpha" type="matrix" values="0 0 0 0 0 0 0 0 0 0 0 0 0 0 0 0 0 0 127 0" result="hardAlpha"/>
<feOffset dy="3.20287"/>
<feGaussianBlur stdDeviation="1.60143"/>
<feColorMatrix type="matrix" values="0 0 0 0 0 0 0 0 0 0 0 0 0 0 0 0 0 0 0.09 0"/>
<feBlend mode="normal" in2="effect1_dropShadow_502_15314" result="effect2_dropShadow_502_15314"/>
<feColorMatrix in="SourceAlpha" type="matrix" values="0 0 0 0 0 0 0 0 0 0 0 0 0 0 0 0 0 0 127 0" result="hardAlpha"/>
<feOffset dy="7.47336"/>
<feGaussianBlur stdDeviation="2.40215"/>
<feColorMatrix type="matrix" values="0 0 0 0 0 0 0 0 0 0 0 0 0 0 0 0 0 0 0.05 0"/>
<feBlend mode="normal" in2="effect2_dropShadow_502_15314" result="effect3_dropShadow_502_15314"/>
<feColorMatrix in="SourceAlpha" type="matrix" values="0 0 0 0 0 0 0 0 0 0 0 0 0 0 0 0 0 0 127 0" result="hardAlpha"/>
<feOffset dy="13.3453"/>
<feGaussianBlur stdDeviation="2.66906"/>
<feColorMatrix type="matrix" values="0 0 0 0 0 0 0 0 0 0 0 0 0 0 0 0 0 0 0.02 0"/>
<feBlend mode="normal" in2="effect3_dropShadow_502_15314" result="effect4_dropShadow_502_15314"/>
<feBlend mode="normal" in="SourceGraphic" in2="effect4_dropShadow_502_15314" result="shape"/>
</filter>
<filter id="filter3_dddd_502_15314" x="15.1035" y="14.8058" width="60.2754" height="74.8525" filterUnits="userSpaceOnUse" color-interpolation-filters="sRGB">
<feFlood flood-opacity="0" result="BackgroundImageFix"/>
<feColorMatrix in="SourceAlpha" type="matrix" values="0 0 0 0 0 0 0 0 0 0 0 0 0 0 0 0 0 0 127 0" result="hardAlpha"/>
<feOffset dy="1.22891"/>
<feGaussianBlur stdDeviation="1.22891"/>
<feColorMatrix type="matrix" values="0 0 0 0 0 0 0 0 0 0 0 0 0 0 0 0 0 0 0.1 0"/>
<feBlend mode="normal" in2="BackgroundImageFix" result="effect1_dropShadow_502_15314"/>
<feColorMatrix in="SourceAlpha" type="matrix" values="0 0 0 0 0 0 0 0 0 0 0 0 0 0 0 0 0 0 127 0" result="hardAlpha"/>
<feOffset dy="3.68672"/>
<feGaussianBlur stdDeviation="1.84336"/>
<feColorMatrix type="matrix" values="0 0 0 0 0 0 0 0 0 0 0 0 0 0 0 0 0 0 0.09 0"/>
<feBlend mode="normal" in2="effect1_dropShadow_502_15314" result="effect2_dropShadow_502_15314"/>
<feColorMatrix in="SourceAlpha" type="matrix" values="0 0 0 0 0 0 0 0 0 0 0 0 0 0 0 0 0 0 127 0" result="hardAlpha"/>
<feOffset dy="8.60235"/>
<feGaussianBlur stdDeviation="2.76504"/>
<feColorMatrix type="matrix" values="0 0 0 0 0 0 0 0 0 0 0 0 0 0 0 0 0 0 0.05 0"/>
<feBlend mode="normal" in2="effect2_dropShadow_502_15314" result="effect3_dropShadow_502_15314"/>
<feColorMatrix in="SourceAlpha" type="matrix" values="0 0 0 0 0 0 0 0 0 0 0 0 0 0 0 0 0 0 127 0" result="hardAlpha"/>
<feOffset dy="15.3613"/>
<feGaussianBlur stdDeviation="3.07227"/>
<feColorMatrix type="matrix" values="0 0 0 0 0 0 0 0 0 0 0 0 0 0 0 0 0 0 0.02 0"/>
<feBlend mode="normal" in2="effect3_dropShadow_502_15314" result="effect4_dropShadow_502_15314"/>
<feBlend mode="normal" in="SourceGraphic" in2="effect4_dropShadow_502_15314" result="shape"/>
</filter>
<radialGradient id="paint0_radial_502_15314" cx="0" cy="0" r="1" gradientUnits="userSpaceOnUse" gradientTransform="translate(74.88 16.2061) rotate(90) scale(46.1285 247.08)">
<stop stop-color="#D9D9D9"/>
<stop offset="1" stop-color="#D9D9D9" stop-opacity="0"/>
</radialGradient>
<radialGradient id="paint1_radial_502_15314" cx="0" cy="0" r="1" gradientUnits="userSpaceOnUse" gradientTransform="translate(70.3955 2.71931) rotate(82.7189) scale(56.1614 21.2125)">
<stop stop-color="#047857"/>
<stop offset="1" stop-color="#065F46"/>
</radialGradient>
</defs>
</svg>
